<?xml version="1.0" encoding="UTF-8"?>
<svg xmlns="http://www.w3.org/2000/svg" version="1.1" xmlns:xlink="http://www.w3.org/1999/xlink" viewBox="0 0 5000 5000">
  <defs>
    <linearGradient id="linear-gradient" x1="3929.199" y1="1970.941" x2="2595.267" y2="1728.743" gradientTransform="translate(0 5002) scale(1 -1)" gradientUnits="userSpaceOnUse">
      <stop offset="0" stop-color="#54096a"/>
      <stop offset="1" stop-color="#64109e"/>
    </linearGradient>
    <linearGradient id="linear-gradient-2" x1="953.861" y1="3995.638" x2="4122.538" y2="3995.638" gradientUnits="userSpaceOnUse">
      <stop offset="0" stop-color="#fa997f"/>
      <stop offset="1" stop-color="#ffbba4"/>
    </linearGradient>
    <linearGradient id="linear-gradient-3" x1="-4291.083" y1="1919.347" x2="-4155.59" y2="1919.347" gradientTransform="translate(-1970.958) rotate(-180) scale(1 -1)" gradientUnits="userSpaceOnUse">
      <stop offset="0" stop-color="#0714d1"/>
      <stop offset="1" stop-color="#1946ef"/>
    </linearGradient>
    <linearGradient id="linear-gradient-4" x1="3158.513" y1="1902.193" x2="3294.007" y2="1902.193" gradientTransform="matrix(1,0,0,1,0,0)" xlink:href="#linear-gradient-3"/>
    <linearGradient id="linear-gradient-5" x1="3559.043" y1="1874.915" x2="4350.922" y2="1874.915" gradientUnits="userSpaceOnUse">
      <stop offset="0" stop-color="#2f30ee"/>
      <stop offset="1" stop-color="#4951f6"/>
    </linearGradient>
    <linearGradient id="linear-gradient-6" x1="350" y1="2917.255" x2="815.23" y2="2917.255" gradientUnits="userSpaceOnUse">
      <stop offset="0" stop-color="#048897"/>
      <stop offset="1" stop-color="#04a5af"/>
    </linearGradient>
    <linearGradient id="linear-gradient-7" x1="1004.573" y1="2918.198" x2="1523.693" y2="2918.198" xlink:href="#linear-gradient-6"/>
    <linearGradient id="linear-gradient-8" x1="729.618" y1="2568.007" x2="1162.218" y2="2568.007" xlink:href="#linear-gradient-6"/>
    <linearGradient id="linear-gradient-9" x1="710.758" y1="5905.876" x2="1047.877" y2="5905.876" gradientTransform="translate(-773.934 -323.16) rotate(-46.082)" gradientUnits="userSpaceOnUse">
      <stop offset="0" stop-color="#00809a"/>
      <stop offset="1" stop-color="#0061a5"/>
    </linearGradient>
    <linearGradient id="linear-gradient-10" x1="4091.506" y1="3573.304" x2="4397.659" y2="3573.304" gradientUnits="userSpaceOnUse">
      <stop offset="0" stop-color="#0e13c6"/>
      <stop offset="1" stop-color="#403aeb"/>
    </linearGradient>
    <linearGradient id="linear-gradient-11" x1="4036.074" y1="3408.934" x2="4397.64" y2="3408.934" xlink:href="#linear-gradient-10"/>
    <linearGradient id="linear-gradient-12" x1="4011.026" y1="3398.966" x2="4422.715" y2="3398.966" xlink:href="#linear-gradient-10"/>
  </defs>
  <!-- Generator: Adobe Illustrator 28.7.7, SVG Export Plug-In . SVG Version: 1.2.0 Build 194)  -->
  <g>
    <g id="Layer_1">
      <g id="Representative">
        <g>
          <path d="M4633.902,3064.915c-70.549,412.931-333.908,754.991-670.304,993.504-285.422,201.567-638.61,343.216-967.344,401.499-344.58,61.233-889.27,20.753-1102.559-33.197-148.388-37.618-291.783-89.484-429.461-155.421-294.047-141.065-561.501-346.75-761.95-608.967-532.653-695.828-342.503-1763.12,251.938-2359.817,146.671-147.211,334.205-271.875,524.897-354.591,337.661-126.541,506.863-83.335,759.605-93.542,70.269-44.38,133.141-98.951,204.942-141.798,397.98-237.507,907.357-279.904,1326.355-58.906,209.272,110.319,379.846,273.32,505.502,473.12,173.281,275.57,206.927,633.319,135.125,946.055-9.291,40.323-22.641,79.651-31.391,119.974,27.351,41.083,61.85,61.264,117.533,146.942,138.825,213.599,179.778,476.093,137.111,725.144Z" style="fill: #c3c4f8;"/>
          <rect x="509.926" y="2274.603" width="1247.246" height="107.791" style="fill: #ff7d65;"/>
          <g>
            <rect x="1490.494" y="855.636" width="2502.921" height="1743.731" style="fill: #695ada;"/>
            <rect x="1647.008" y="964.381" width="2201.806" height="1481.451" style="fill: #bed8f4;"/>
            <polyline points="1646.987 2012.06 1646.987 1929.344 2665.656 964.341 2752.975 964.341" style="fill: #e4e9ff;"/>
            <polygon points="3359.324 964.341 1795.372 2445.848 1655.107 2445.848 3219.057 964.341 3359.324 964.341" style="fill: #e4e9ff;"/>
            <polygon points="3848.859 964.341 3848.859 1081.518 2408.576 2445.848 2233.943 2445.848 3797.893 964.341 3848.859 964.341" style="fill: #e4e9ff;"/>
            <polygon points="3848.859 1643.846 3848.859 1809.371 3176.932 2445.848 3002.297 2445.848 3848.859 1643.846" style="fill: #e4e9ff;"/>
            <polygon points="3848.859 2153.048 3848.859 2318.572 3714.454 2445.848 3539.731 2445.848 3848.859 2153.048" style="fill: #e4e9ff;"/>
            <line x1="2752.975" y1="964.341" x2="1646.987" y2="2012.06" style="fill: #e4e9ff;"/>
            <polygon points="3848.859 1185.614 3848.859 1268.149 2605.672 2445.848 2518.536 2445.848 3848.859 1185.614" style="fill: #e4e9ff;"/>
            <polygon points="2123.895 964.341 1646.987 1416.175 1646.987 1283.212 1983.628 964.341 2123.895 964.341" style="fill: #e4e9ff;"/>
            <polygon points="1940.6 964.341 1646.987 1242.44 1646.987 964.341 1940.6 964.341" style="fill: #e4e9ff;"/>
            <g>
              <g>
                <rect x="2156.296" y="906.431" width="59.606" height="1659.386" style="fill: #695ada;"/>
                <rect x="2724.108" y="875.402" width="60.529" height="1626.555" style="fill: #695ada;"/>
                <rect x="3297.174" y="922.129" width="48.258" height="1626.551" style="fill: #695ada;"/>
              </g>
              <rect x="1560.967" y="1423.966" width="2388.683" height="58.813" style="fill: #695ada;"/>
              <rect x="1539.741" y="1914.57" width="2388.683" height="58.813" style="fill: #695ada;"/>
            </g>
          </g>
          <path d="M3510.607,2382.391c131.973,13.107,263.154,51.986,326.633,168.402,25.731,47.189,28.402,79.062,27.384,132.969-9.989,529.105-54.065,877.896-62.693,977.784-6.471,74.913-10.394,148.18-33.73,221.045-24.365,75.895-108.914,71.165-177.563,78.425-219.608,23.224-440.752,1.362-659.517-20.358-64.486-6.402-133.533-14.694-182.258-57.173-42.167-36.761-61.289-92.656-75.733-146.531-110.042-410.443-48.029-844.667,14.647-1264.844,5.171-34.662,12.918-73.51,42.418-92.687,19.901-12.937,45.148-13.582,68.925-13.805,237.37-2.228,475.192-6.694,711.488,16.774Z" style="fill: url(#linear-gradient);"/>
          <path d="M3654.53,3820.901c-122.495,33.17-246.618,63.468-373.171,69.675-171.929,8.523-345.842-28.538-500.269-106.55-81.725-41.322-162.64-99.691-194.118-187.435-35.642-99.644-12.001-271.79,3.517-374.87,28.054-184.842,62.781-368.758,104.186-551.003,17.589-77.731,42.033-163.157,108.695-204.206,275.18-169.448,695.515,25.327,847.871,289.476,82.077,142.303,93.751,313.222,93.242,474.835-.304,96.525,1.139,193.059-.476,289.577-.995,59.475.995,119.39-6.963,178.48-9.041,67.131-16.756,104.35-82.512,122.021Z" style="fill: #090db1;"/>
          <path d="M3763.978,4101.266v82.716c-229.874,128.733-501.862,228.8-767.724,275.936-344.58,61.233-889.27,20.753-1102.559-33.197-148.388-37.618-291.783-89.484-429.461-155.421v-170.035h2299.744Z" style="fill: #ff7d65;"/>
          <path d="M2588.353,4119.575v371.28c-9.833.092-19.666,0-29.587-.088v-371.191h29.587Z" style="fill: #bf2027;"/>
          <rect x="1577.802" y="3839.873" width="2041.939" height="326.404" style="fill: #dc4038;"/>
          <path d="M1741.069,3820.102v562.328c-350.179-114.729-667.335-312.845-903.84-562.328h903.84Z" style="fill: #dc4038;"/>
          <path d="M4257.751,3801.339c-236.308,255.528-550.153,440.321-882.19,557.457v-557.457h882.19Z" style="fill: #dc4038;"/>
          <path d="M1741.069,3850.858v315.444h-470.772c-146.309-88.506-283.497-195.033-403.12-315.444h873.892Z" style="fill: #bf2027;"/>
          <path d="M4210.213,3850.858c-117.096,117.114-256.267,223.928-415.115,315.444h-419.537v-315.444h834.653Z" style="fill: #bf2027;"/>
          <path d="M4122.538,3932.856c-44.953,39.777-100.159,83.885-158.94,125.563H1108.743c-57.334-42.093-112.177-87.094-154.881-125.563h3168.676Z" style="fill: url(#linear-gradient-2);"/>
          <path d="M4286.347,3769.587c-59.626,67.926-125.023,131.337-194.66,189.877H984.171c-68.646-58.901-133.321-122.224-193.396-189.877h3495.572Z" style="fill: #ff7d65;"/>
          <g>
            <path d="M2322.072,2639.698l-1.984,1131.695-369.476,20.023c-5.05-474.472,3.61-937.845,259.067-1201.422l112.393,49.704Z" style="fill: #fefefe;"/>
            <path d="M2322.072,2643.665l-112.394-53.671s0,.09-.09.18c-14.007,62.366-276.886,1207.213-258.975,1201.242,11.546-3.338,217.842-80.642,369.745-149.197l1.714-998.554Z" style="fill: #c3c4f8;"/>
            <path d="M3305.653,3143.394l-19.215,696.462c-10.921.945-1167.858,101.119-1168.857,101.206l92.098-1351.068c95.075-62.513,189.608-116.723,279.631-117.806l7.034-42.754c4.871-30.131,22.551-56.65,48.35-72.885l45.463-28.594,298.214-43.3c50.603,37.346,93.269,87.68,124.389,156.958,84.702,15.425,177.793,48.797,273.679,88.217.655,20.912-4.099-130.904,19.215,613.565Z" style="fill: #fefefe;"/>
            <path d="M2852.109,3881.8c-29.026-.782,114.615,3.086-335.018-9.02l151.091-1092.636-29.045-66.301,70.359-65.217,75.68,70.45-32.562,57.822,99.495,1104.902Z" style="fill: #850562;"/>
            <path d="M2529.721,3873.14l-12.63-.361,151.091-1092.636c194.028,230.83,117.536,732.275-138.461,1092.997Z" style="fill: #c5126b;"/>
            <path d="M3305.653,3143.394l-19.215,696.462-484.754,41.944c-32.603-14.585-69.164-36.264-87.768-66.75-14.072-23-18.041-53.492-4.51-76.673,14.795-25.528,45.644-36.169,73.967-44.199,96.429-27.515,197.006-49.431,280.354-105.086,55.958-37.107,68.256-68.883,85.242-140.269,30.668-128.267,61.52-257.261,69.727-388.867l64.856-2.616c6.946,11.998,13.801,23.996,20.567,36.081l1.535,49.973Z" style="fill: #c3c4f8;"/>
            <g>
              <path d="M3205.626,3838.534c-7.512,13.045-21.151,22.19-35.287,29.558-77.984,40.739-182.855,35.326-255.108-13.227-12.946-8.698-27.082-19.174-43.093-17.041-19.867,2.661-29.85,22.987-46.356,33.372-18.583,11.628-46.553,8.521-62.072-6.388-10.181-9.764-14.529-23.611-12.85-36.925,3.658-6.124,6.325-12.69,7.512-19.702-4.153,5.946-6.72,12.69-7.512,19.702-14.727,24.587-47.048,40.921-78.083,36.483-10.972-1.512-22.734-6.393-26.194-15.888-1.778-4.971-.987-10.298.099-15.446,2.174-10.826,5.239-21.57,9.093-32.132-6.127,14.38-13.837,28.227-26.489,38.347-15.716,12.512-41.117,17.219-57.82,5.855-21.747-14.822-17.099-45.355-6.03-67.723-11.465,7.19-17.297,19.616-26.489,29.111-9.194,9.5-26.293,15.888-36.771,7.459-7.312-5.946-7.51-16.066-6.325-24.855,7.314-53.698,45.567-103.136,98.939-127.991,25.007-11.715,52.584-18.016,80.062-23.876,93.38-20.185,139.286-19.859,267.265,51.215,11.761,6.479,23.82,13.136,37.459,15.355,23.921,3.727,48.334-7.012,72.253-3.727l92.912,13.756c16.11,19.351,36.669,35.682,51.1,56.099,14.43,20.326,22.14,47.132,9.785,68.611Z" style="fill: #f7b59b;"/>
              <g>
                <path d="M3717.973,3742.887c-5.052,163.992-293.523,214.864-649.918,184.107,32.933-102.498,29.064-196.345-72.253-233.9,25.146-7.941-111.672,35.265,371.909-117.445-14.736-35.377-35.825-89.466-53.129-137.922,0-.181-.09-.269-.09-.449-139.816-392.117-146.132-692.494-28.054-907.45,205.755,29.316,409.706,769.528,429.91,1147.661,1.264,23.273,1.806,45.102,1.625,65.398Z" style="fill: #fefefe;"/>
                <path d="M3717.973,3742.887c-5.052,163.992-293.523,214.864-649.918,184.107,16.056-49.973,21.738-92.551,16.688-127.73,128.179,12.359,258.072,6.585,384.627-17.05,89.032-16.689,180.046-44.111,246.977-104.725,1.264,23.273,1.806,45.102,1.625,65.398Z" style="fill: #c3c4f8;"/>
                <path d="M3139.858,3932.862c-3.231-1.292-4.802-4.954-3.51-8.185,14.402-36.026,18.027-115.577-12.626-171.245-18.429-33.467-46.31-53.885-82.869-60.684-3.42-.636-5.675-3.925-5.04-7.345.636-3.42,3.92-5.684,7.344-5.04,40.446,7.521,71.264,30.063,91.6,66.995,34.008,61.758,28.033,145.107,13.287,181.993-1.303,3.264-4.996,4.789-8.185,3.51Z" style="fill: #080bb6;"/>
                <path d="M3619.74,3624.177c-2.795.815-4.598.995-7.485.093-23.093-6.728-24.187-16.412-89.752-34.549-70.364-19.42-140.317-10.236-169.403-9.474l14.612-4.598c-1.352-3.246-2.616-6.492-3.968-9.65,10.157-4.068,8.459-5.794,25.438-16.327,28.499-17.934,62.312-29.657,95.795-27.783,6.494.449,13.621.181,17.86,5.233-17.409,11.095-100.305,11.637-116.903,39.508,75.951-14.883,163.179,2.704,226.954,47.357,2.524,1.806,4.51,3.788,6.673,5.955l.181,4.237Z" style="fill: #788bf1;"/>
                <path d="M3314.493,3437.278c-145.539-386.709-148.211-690.529-28.054-907.45-100.847,235.701-56.016,552.405,28.054,907.45Z" style="fill: #c3c4f8;"/>
              </g>
            </g>
            <path d="M2758.372,3828.904c-1.187,7.809-3.854,15.12-7.512,21.94.792-7.809,3.359-15.318,7.512-21.94Z" style="fill: #f7b59b;"/>
            <g>
              <path d="M2715.629,2623.82c-128.744-101.791-171.419-227.379-145.949-371.099l326.356-14.883c41.911,181.805-15.978,308.515-180.407,385.982Z" style="fill: #f7b59b;"/>
              <path d="M2908.576,2321.638c-33.465,32.025-71.802,57.28-115.822,75.863-68.922,29.158-152.669,27.909-225.058-6.677-7.397-43.657-6.585-89.75,1.984-138.102l326.356-14.883c6.675,28.955,10.914,56.919,12.54,83.8Z" style="fill: #f29979;"/>
              <g>
                <path d="M3174.596,1814.074c-14.886-212.143-64.936-440.356-323.299-524.509-90.554-29.497-187.579-32.893-280.577-9.83-221.3,54.873-310.631,222.067-273.101,511.128,1.792,13.799-7.943,26.438-21.743,28.23-13.729,1.8-26.434-7.935-28.23-21.742-40.848-314.63,63.767-505.235,310.943-566.521,102.175-25.339,208.788-21.599,308.314,10.822,288.483,93.966,342.835,353.386,357.959,568.896.972,13.881-9.489,25.921-23.37,26.897-13.998.959-25.931-9.579-26.897-23.37Z" style="fill: #090db1;"/>
                <path d="M3134.118,1741.355c-11.538,53.662-36.056,103.3-81.285,135.735-122.91,88.142-285.226,92.699-436.383,80.287-49.963-4.103-106.362-3.011-153.534-20.553-33.673-12.522-66.37-32.624-91.015-59.838-44.911-49.592-33.882-71.912-46.653-113.095-7.46-24.057-10.668-49.192-13.845-74.178-9.214-72.479-4.557-149.39,24.289-217.232,57.799-135.936,211.488-186.206,348.676-187.931,151.902-1.911,321.028,64.51,402.103,198.947,46.188,76.589,66.401,170.634,47.647,257.858Z" style="fill: #330543;"/>
                <g>
                  <path d="M2260.957,2066.106c-1.916-.09,25.833,1.417,130.073,6.946,83.167,3.065,94.624-299.747,11.456-302.905.92-.006-10.75.125-137.019,1.083-104.818-7.034-109.147,288.022-4.51,294.875Z" style="fill: #2e30c0;"/>
                  <path d="M2260.957,2066.106l122.856,6.585c.271-.903.632-1.713.903-2.616,32.472-96.066,36.262-201.606,11.275-299.835l-130.524.991c-104.818-7.034-109.147,288.022-4.51,294.875Z" style="fill: #788bf1;"/>
                  <path d="M2260.957,2066.106l29.765,1.625c7.668-16.059,12.991-33.377,17.05-50.788,18.944-80.549,14.702-165.159-3.246-245.981l-39.059.269c-104.818-7.034-109.147,288.022-4.51,294.875Z" style="fill: url(#linear-gradient-3);"/>
                </g>
                <g>
                  <path d="M2364.326,1803.555c-.776-49.973,17.842-170.823,52.647-206.815,12.074-12.489,29.957-18.636,47.1-18.641,48.926-.018,91.097,44.371,145.918,46.081,98.579,3.08,169.398-76.317,275.969-46.049,27.814,7.74,53.071,22.731,73.178,43.447,37.191,38.729,48.985,90.267,60.946,140.889,4.785,20.26,10.581,41.295,12.358,62.042l-2.005,16.936c-8.267-10.603-13.131-37.074-19.36-49.08-21.811-42.017-60.166-134.182-98.435-159.701-67.323-44.894-140.97-11.911-211.898,3.55-28.676,6.251-57.712,9.724-87.078,8.538-49.288-1.994-121.996-27.675-167.242-16.868-49.837,11.903-57.266,140.682-79.668,172.492-.767,1.091-1.619,2.12-2.431,3.18Z" style="fill: #f29979;"/>
                  <path d="M3023.834,2051.999c-4.551,17.424-9.549,34.734-15.181,51.841-22.662,68.829-62.857,135.512-120.277,180.813-77.935,61.486-197.166,103.561-294.879,68.366-.008-.003-15.786-5.686-15.786-5.686-51.506-23.181-93.359-49.158-131.877-90.834-105.669-114.333-100.345-292.974-83.438-437.126l1.894-15.786c.81-1.083,1.713-2.167,2.436-3.246,22.461-31.752,29.856-160.565,79.739-172.47,45.192-10.826,117.897,14.883,167.238,16.869,29.316,1.172,58.362-2.255,87.046-8.571,70.901-15.425,144.597-48.44,211.891-3.519,38.244,25.528,76.581,117.718,98.413,159.753,19.207,37.028,24.201,79.885,24.952,121.041,1.292,70.822,2.228,83.431-12.17,138.556Z" style="fill: #f7b59b;"/>
                </g>
                <g>
                  <path d="M2800.489,2142.314c-65.217,143.242-237.956,92.005-259.516-8.391,82.176,24.806,169.493,23.723,259.516,8.391Z" style="fill: #fefefe;"/>
                  <g>
                    <path d="M2666.857,1905.41c2.814,32.272-2.988,72.58-22.268,115.725-8.467,17.702-8.644,30.164,9.271,38.076,16.312,7.42,35.592-1.662,51.245-10.106-14.034,16.693-34.482,28.515-55.534,22.491-22.873-6.084-34.278-25.143-20.302-57.323,17.338-37.111,26.903-69.754,37.588-108.862Z" style="fill: #f29979;"/>
                    <g>
                      <path d="M2526.813,1892.087c0,26.612-15.065,48.26-33.646,48.26s-33.738-21.648-33.738-48.26,15.065-48.26,33.738-48.26,33.646,21.652,33.646,48.26Z" style="fill: #330543;"/>
                      <path d="M2531.953,1877.55c0,10.436-7.214,18.959-16.054,18.959s-16.059-8.523-16.059-18.959,7.217-18.953,16.059-18.953,16.054,8.517,16.054,18.953Z" style="fill: #fefefe;"/>
                    </g>
                    <g>
                      <path d="M2885.734,1895.717c0,26.612-15.065,48.26-33.646,48.26s-33.738-21.648-33.738-48.26,15.066-48.26,33.738-48.26,33.646,21.652,33.646,48.26Z" style="fill: #330543;"/>
                      <path d="M2890.874,1881.18c0,10.436-7.215,18.959-16.054,18.959s-16.059-8.523-16.059-18.959,7.217-18.953,16.059-18.953,16.054,8.517,16.054,18.953Z" style="fill: #fefefe;"/>
                    </g>
                    <path d="M2926.744,1814.352c-38.445-25.234-122.082-13.463-142.08-37.182-5.728-6.797-6.188-16.741-5.083-25.225.367-2.816,1.214-5.383,3.162-7.497,4.171-4.527,9.719-3.606,15.222-3.45,38.211,1.085,92.094,1.666,116.317,27.945,8.912,9.67,15.907,32.735,15.84,45.954l-3.378-.546Z" style="fill: #330543;"/>
                    <path d="M2411.851,1811.761c38.445-25.234,122.082-13.463,142.08-37.182,5.728-6.796,6.188-16.741,5.083-25.224-.367-2.816-1.214-5.383-3.162-7.497-4.171-4.527-9.719-3.606-15.222-3.45-36.551,1.038-91.894,1.45-116.317,27.945-8.912,9.67-15.907,32.735-15.84,45.954l3.378-.546Z" style="fill: #330543;"/>
                  </g>
                </g>
                <path d="M2871.469,2235.591c-6.922,0-12.553-5.585-12.598-12.516-.045-6.955,5.557-12.635,12.516-12.68,45.884-.307,93.33-.623,137.488-13.254,35.185-10.059,68.307-28.156,95.786-52.33,41.164-36.21,63.739-83.517,60.384-126.542-.541-6.939,4.646-13,11.581-13.541,6.963-.513,12.999,4.65,13.541,11.581,3.965,50.891-21.779,105.998-68.865,147.424-30.264,26.622-66.745,46.552-105.497,57.637-47.081,13.465-95.531,13.897-144.336,14.221Z" style="fill: #090db1;"/>
                <g>
                  <path d="M3217.681,2048.952c1.916-.09-25.833,1.417-130.073,6.946-83.168,3.065-94.624-299.747-11.456-302.905-.92-.006,10.75.125,137.019,1.084,104.818-7.034,109.147,288.022,4.51,294.875Z" style="fill: #2e30c0;"/>
                  <path d="M3217.681,2048.952l-122.856,6.585c-.271-.903-.632-1.713-.903-2.616-32.472-96.066-36.262-201.606-11.275-299.835l130.524.991c104.818-7.034,109.147,288.022,4.51,294.875Z" style="fill: #788bf1;"/>
                  <path d="M3217.681,2048.952l-29.765,1.625c-7.668-16.059-12.991-33.377-17.05-50.788-18.944-80.549-14.702-165.159,3.246-245.981l39.059.269c104.818-7.034,109.147,288.022,4.51,294.875Z" style="fill: url(#linear-gradient-4);"/>
                </g>
                <path d="M2964.03,2220.7c0,30.835-23.344,56.827-52.86,56.827-84.139-.181-79.128.388-85.874-.449-43.7-5.764-62.035-62.779-30.849-96.608,9.562-10.284,22.912-16.689,37.343-16.689h79.38c29.045,0,52.86,25.616,52.86,56.919Z" style="fill: #090db1;"/>
                <path d="M2873.013,2277.527c-41.604-.165-41.166.364-47.718-.449-43.7-5.764-62.035-62.779-30.849-96.608,9.562-10.284,22.912-16.689,37.343-16.689h48.892c1.172,4.242,2.075,8.659,2.797,12.989,5.93,34.002,5.443,70.114-10.465,100.757Z" style="fill: #220573;"/>
                <path d="M2825.295,2277.078c-43.7-5.764-62.035-62.779-30.849-96.608,17.04-18.328,37.406-16.501,38.246-16.689,1.174,4.242,2.074,8.659,2.797,12.989,6.014,33.735,5.348,70.094-10.194,100.307Z" style="fill: #330543;"/>
              </g>
            </g>
            <g>
              <g>
                <path d="M2973.632,3925.195c-4.656,3.103-9.854,5.415-16.229,6.658-20.025,3.968-1456.249-4.779-1489.353-6.585-19.122-1.084-39.96-6.853-55.745-17.948-36.623-25.44-36.894-90.477-44.47-131.61-48.522-216.892-148.184-759.106-149.378-771.417-.813-8.302.632-18.675,6.856-24.806,13.681-13.487,1138.499-11.049,1153.975-12.271,20.206.903,38.698,6.677,53.041,21.74,8.479,9.02,12.176,19.305,15.244,31.03,11.095,42.397,128.269,815.533,134.044,823.016,16.235,10.919,299.747,4.695,376.327,8.029,17.032.702,31.919,10.785,35.542,27.334.656,3.043-3.712,36.072-19.852,46.83Z" style="fill: #2e30c0;"/>
                <path d="M2973.632,3925.195c-4.656,3.103-9.854,5.415-16.229,6.658-20.025,3.968-1456.249-4.779-1489.353-6.585-19.122-1.084-39.96-6.853-55.745-17.948-36.623-25.44-36.894-90.477-44.47-131.61-36.082-161.283-99.134-495.847-130.615-666.512,5.501,4.33,10.734,8.747,15.786,13.438,36.892,34.368,1104.633,737.327,1295.233,787.842-2.526-52.77-158.847-903.12-180.857-929.913-5.411-6.641-10.776-11.88-12.269-13.077,14.524-.093,23.002-.181,24.174-.273,20.206.903,38.698,6.677,53.041,21.74,8.479,9.02,12.176,19.305,15.244,31.03,11.095,42.397,128.269,815.533,134.044,823.016,16.235,10.919,299.747,4.695,376.327,8.029,17.032.702,31.919,10.785,35.542,27.334.656,3.043-3.712,36.072-19.852,46.83Z" style="fill: #090db1;"/>
              </g>
              <path d="M1928.726,3418.287c7.206,55.741-31.883,101.012-87.393,101.012s-106.302-45.27-113.508-101.012c-7.216-55.82,31.963-101.016,87.391-101.016s106.294,45.195,113.51,101.016Z" style="fill: #220573;"/>
            </g>
            <path d="M2915.019,2848.439l-205.532-191.216-193.168,178.869c-3.83,3.554-10.105,1.135-10.551-4.076l-31.121-359.013c-.303-3.465,2.264-6.52,5.729-6.82,3.432-.312,6.516,2.26,6.82,5.729l30.01,346.198,188.009-174.104c2.415-2.243,6.159-2.239,8.575.012l201.846,187.788,90.993-391.622c.787-3.387,4.158-5.511,7.562-4.708,3.387.787,5.495,4.17,4.708,7.562l-93.453,402.215c-1.097,4.716-6.893,6.473-10.424,3.186Z" style="fill: #788bf1;"/>
            <g>
              <rect x="2833.246" y="3143.322" width="303.986" height="84.341" style="fill: #788bf1;"/>
              <path d="M2843.091,3154.462c94.191-.234,189.297,3.698,283.357-.004,1.777,19.389,1.137,38.914.934,58.362l-283.772-.555-.46-34.999-.059-22.804Z" style="fill: #c3c4f8;"/>
            </g>
          </g>
          <g>
            <path d="M3960.569,1478.944c166.378,2.387,324.677,120.905,373.82,279.878,55.372,179.122-32.468,389.876-201.793,472.125-131.259,63.759-298.41,51.079-415.805-36.815-133.199-99.726-191.603-288.654-137.919-446.151,53.696-157.533,215.356-271.424,381.696-269.037Z" style="fill: url(#linear-gradient-5);"/>
            <path d="M3907.453,1444.63c166.378,2.387,324.677,120.905,373.82,279.878,55.372,179.122-32.468,389.876-201.793,472.125-131.259,63.759-298.41,51.079-415.805-36.815-133.199-99.726-191.603-288.654-137.919-446.151,53.696-157.533,215.356-271.424,381.696-269.037Z" style="fill: #fefefe;"/>
            <path d="M4184.454,1826.853c-39.022,2.787-79.293.852-118.455.785-33.78-.073,124.384.269-340.591-.735-23.457-.032-50.135,2.305-73.196-2.115-22.922-4.39-34.854-21.348-27.896-44.737,4.835-16.25,15.082-23.336,29.451-31.156,38.526-2.562,78.22-.604,116.895-.541,33.128.014-125.144-.053,349.692.149,19.231.014,43.469-2.661,62.159,1.367,20.609,4.447,38.431,27.317,30.638,48.62-5.097,13.918-15.817,22.109-28.698,28.365Z" style="fill: #f4782f;"/>
            <path d="M4175.29,1964.847l-348.93-.014c-52.904.216-107.586,4.244-160.274,1.186-25.721-1.488-39.299-14.643-42.77-29.506-2.318-9.922-2.111-23.394,4.131-31.878,8.569-11.636,21.085-16.011,34.832-17.721,103.865-3.365,208.573-1.037,312.515-1.046,64.563-.009,133.731-4.118,197.78.528,8.989.654,16.174,1.651,24.012,6.513,7.812,4.844,13.449,11.704,15.267,20.86,2.179,10.964-1.078,25.338-7.64,34.377-7.433,10.238-16.638,14.978-28.924,16.701Z" style="fill: #f4782f;"/>
          </g>
          <g>
            <g>
              <path d="M892.743,3370.938c-47.159-84.591-111.453-197.378-121.06-214.529-2.264-4.048-.816-9.165,3.236-11.429,4.052-2.251,9.161-.812,11.429,3.236,6.587,11.792,77.137,135.742,121.068,214.546,2.26,4.052.804,9.165-3.248,11.425-4.015,2.244-9.153.829-11.425-3.248Z" style="fill: #4414b3;"/>
              <g>
                <path d="M956.514,3411.917c-58.084-62.057-100.867-334.777-59.556-479.383,1.275-4.453,5.93-7.033,10.383-5.766,4.458,1.271,7.041,5.922,5.766,10.383-42.948,150.348,5.294,409.465,55.668,463.292,6.262,6.688,11.95,9.526,16.891,8.468,4.503-.98,8.997,1.903,9.977,6.442.976,4.535-1.907,9.001-6.442,9.977-12.537,2.717-23.917-4.039-32.688-13.414Z" style="fill: #4414b3;"/>
                <path d="M970.666,3497.956c-21.144-129.036-27.434-301.216,62.689-388.694,3.322-3.227,8.64-3.153,11.876.18,3.227,3.326,3.149,8.645-.18,11.876-84.915,82.426-78.305,248.837-57.809,373.923.75,4.576-2.354,8.895-6.93,9.645-4.638.746-8.9-2.399-9.645-6.93Z" style="fill: #4414b3;"/>
                <path d="M811.401,3130.395c-3.603,29.959-31.388,50.138-58.135,48.456-294.146-18.602-414.689-244.922-402.42-477.827,1.373-27.248,25.239-47.888,52.371-45.23,267.919,26.283,440.26,201.751,408.184,474.601Z" style="fill: url(#linear-gradient-6);"/>
                <g>
                  <path d="M781.476,3173.021c-129.873-197.69-210.47-329.111-387.817-470.563-3.625-2.891-4.22-8.177-1.329-11.802,2.895-3.629,8.189-4.212,11.802-1.329,178.301,142.21,257.655,270.914,391.368,474.45,2.551,3.875,1.48,9.083-2.391,11.634-3.874,2.557-9.09,1.473-11.634-2.391Z" style="fill: #4414b3;"/>
                  <path d="M550.002,2845.113l-152.849-49.915c-4.408-1.439-6.816-6.184-5.376-10.592,1.439-4.404,6.188-6.803,10.592-5.376l140.526,45.892-10.305-97.439c-.488-4.609,2.858-8.747,7.472-9.235,4.605-.394,8.747,2.858,9.235,7.472l11.667,110.328c.638,6.034-5.174,10.758-10.961,8.866Z" style="fill: #4414b3;"/>
                  <path d="M659.51,3002.604s-128.814-24.519-135.261-25.773c-4.552-.886-7.521-5.294-6.635-9.85.882-4.552,5.27-7.521,9.85-6.635,5.389,1.05,96.381,18.371,125.972,24.002l9.288-119.407c.361-4.618,4.408-8.021,9.026-7.722,4.626.361,8.083,4.4,7.722,9.026l-10.018,128.761c-.386,4.988-5.024,8.529-9.944,7.599Z" style="fill: #4414b3;"/>
                  <path d="M769.329,3150.34l-118.107-53.04c-4.232-1.899-6.123-6.869-4.22-11.101,1.899-4.232,6.873-6.127,11.101-4.22l107.273,48.172,7.336-89.065c.377-4.617,4.416-8.095,9.059-7.681,4.622.381,8.062,4.437,7.681,9.059l-8.312,100.904c-.481,5.797-6.535,9.333-11.81,6.971Z" style="fill: #4414b3;"/>
                </g>
                <path d="M1004.595,3093.932c-.848,29.875,23.266,54.188,50.35,56.503,293.672,25.001,446.287-181.057,468.516-413.223,2.663-27.152-17.897-51.088-45.125-52.462-268.864-13.534-465.208,134.586-473.741,409.183Z" style="fill: url(#linear-gradient-7);"/>
                <g>
                  <path d="M1016.045,3141.154c-3.453-3.096-3.744-8.403-.648-11.86,159.289-178.234,258.494-296.436,457.083-411.515,4.011-2.325,9.149-.956,11.478,3.055,2.325,4.015.956,9.153-3.055,11.478-195.292,113.17-292.512,228.621-452.999,408.194-1.657,1.849-8.415,3.74-11.859.648Z" style="fill: #4414b3;"/>
                  <path d="M1295.691,2839.95l27.82-107.396c1.165-4.49,5.737-7.16,10.24-6.024,4.49,1.165,7.185,5.749,6.024,10.24l-24.572,94.847,145.759-24.654c4.593-.812,8.907,2.305,9.682,6.877.775,4.576-2.305,8.911-6.877,9.682l-158.541,26.815c-5.944,1.043-11.064-4.47-9.534-10.387Z" style="fill: #4414b3;"/>
                  <path d="M1178.38,2953.998l19.959-144.422c.636-4.597,4.892-7.8,9.469-7.172,4.597.636,7.808,4.876,7.172,9.469l-18.433,133.37,143.815-20.729c4.585-.607,8.85,2.518,9.51,7.115.66,4.589-2.522,8.85-7.115,9.51l-154.859,22.321c-5.542.8-10.279-3.949-9.518-9.461Z" style="fill: #4414b3;"/>
                  <path d="M1078.55,3063.079l9.091-128.827c.324-4.626,4.289-8.091,8.968-7.787,4.626.328,8.115,4.343,7.787,8.968l-8.431,119.469c30.1-1.206,122.651-4.913,128.138-5.155,4.523-.271,8.554,3.379,8.763,8.017.205,4.634-3.383,8.558-8.017,8.764-6.565.291-137.586,5.532-137.586,5.532-5.068.188-9.063-4.041-8.714-8.981Z" style="fill: #4414b3;"/>
                </g>
                <path d="M962.589,2937.835c-7.245,5.682-12.91,10.293-18.108,13.207-26.432,14.819-62.754,9.165-83.037-14.8-228.362-270.006-132.692-562.411,79.055-745.357,24.72-21.457,62.417-17.958,82.666,7.731,190.841,242.175,198.606,534.172-60.576,739.219Z" style="fill: url(#linear-gradient-8);"/>
                <g>
                  <path d="M897.901,2966.226c-4.523-1.025-7.357-5.524-6.332-10.047,63.206-276.975,109.945-455.894,84.944-727.207-.426-4.617,2.973-8.71,7.591-9.132,4.634-.492,8.706,2.973,9.132,7.59,25.136,272.729-20.614,449.062-85.289,732.464-1.034,4.576-5.598,7.356-10.047,6.332Z" style="fill: #4414b3;"/>
                  <path d="M982.833,2482.254l-83.837-173.759c-2.014-4.179-.263-9.198,3.916-11.216,4.179-2.005,9.194-.262,11.216,3.916l78.202,162.084,77.423-91.878c2.985-3.543,8.292-4.002,11.835-1.009,3.547,2.989,3.998,8.288,1.009,11.835l-85.776,101.79c-3.932,4.664-11.349,3.699-13.988-1.763Z" style="fill: #4414b3;"/>
                  <path d="M945.516,2707.753l-85.678-167.03c-2.116-4.13-.488-9.19,3.638-11.306,4.129-2.136,9.19-.488,11.306,3.637l80.585,157.102,119.329-112.161c3.383-3.178,8.694-3.01,11.872.365,3.178,3.383,3.014,8.698-.365,11.872l-127.461,119.805c-4.074,3.83-10.685,2.675-13.225-2.284Z" style="fill: #4414b3;"/>
                  <path d="M901.043,2925.882l-52.257-146.284c-1.558-4.367.718-9.173,5.085-10.736,4.384-1.546,9.173.718,10.736,5.085l48.258,135.097,85.018-69.164c3.592-2.928,8.882-2.387,11.814,1.218,2.924,3.596,2.383,8.886-1.218,11.814l-94.228,76.66c-4.479,3.641-11.251,1.78-13.209-3.691Z" style="fill: #4414b3;"/>
                </g>
              </g>
            </g>
            <g>
              <path d="M1272.281,3377.113c-117.503,630.011-89.016,477.272-93.54,501.529-2.977,15.698-16.689,27.154-32.655,27.154h-222.08c-67.779-63.051-127.959-127.558-177.613-188.075-6.08-32.612,22.832,122.465-63.502-340.607h589.389Z" style="fill: #fb6391;"/>
              <path d="M1178.741,3878.642c-2.977,15.698-16.689,27.154-32.655,27.154h-222.08c-67.779-63.051-127.959-127.558-177.613-188.075-6.08-32.612,22.832,122.465-63.502-340.607h188.525c-8.388,32.65-8.659,68.463-4.6,102.197,16.689,142.163,101.028,274.672,222.712,349.993,28.777,17.86,59.535,32.743,89.213,49.339Z" style="fill: #c5126b;"/>
              <polygon points="1272.242 3377.146 1252.186 3484.48 702.914 3484.48 682.858 3377.146 1272.242 3377.146" style="fill: #c5126b;"/>
              <rect x="640.304" y="3359.542" width="660.477" height="72.767" style="fill: #fb6391;"/>
            </g>
          </g>
          <g>
            <path d="M4523.727,2847.41c1.919,2.446,3.181,5.711,3.567,10,.59,6.559-1.278,13.081-3.468,19.292-9.052,25.673-23.809,48.912-39.168,71.387-9.589,14.034-19.619,28.042-32.679,38.92-15.102,12.579-34.01,20.525-53.564,22.51,6.906,9.358,13.918,18.919,17.596,29.952,8.652,25.957-5.913,46.963-33.587,47.373-11.552.171-22.822-3.244-33.869-6.627,3.723,13.057,10.197,32.322,9.415,45.936-.755,13.138-13.846,26.502-23.217,34.668-21.515,18.747-51.736,28.188-79.933,22.134-11.939-2.563-23.222-7.48-34.413-12.366-38.823-16.952-98.418-30.516-117.301-73.129-4.837-10.915-6.365-23.035-6.451-34.974-.072-10.09,1.014-20.684,6.648-29.054,5.634-8.37,17.01-13.589,26.188-9.396-10.639-26.811-21.495-55.012-21.891-84.246-.22-16.299,4.205-49.615,27.281-49.054,14.974.364,31.388,16.958,40.678,27.422-2.436-34.456-7.305-141.26,15.334-166.516,3.429-3.788,6.497-4.51,11.275-4.422,28.415.093,70.088,44.921,88.041,63.957-11.456-44.384-21.47-93.903-14.704-139.816,2.436-16.147,7.307-34.28,21.47-44.111,7.124-4.871,16.596-7.668,25.075-5.774,15.786,3.427,27.422,58.271,36.623,73.608l1.804,3.066c1.984-32.655-2.436-60.346,10.194-91.824,18.942-47.088,60.436-74.33,105.538-93.362,9.652,31.752,19.034,64.222,16.418,97.779-3.519,44.111-27.693,68.014-59.174,95.344,15.244-6.131,30.488-16.415,46.815-19.12,7.126-1.176,15.515-.722,21.018,4.598,9.02,8.659,12.267,27.154,11.366,39.147-4.33,53.492-84.432,102.021-123.398,133.323,27.115-4.192,53.691-11.141,80.596-16.418,14.266-2.798,43.562-13.354,53.877-.209Z" style="fill: #2e30c0;"/>
            <path d="M4237.601,3115.492c3.274-27.832,16.417-59.088,25.289-85.608,62.084-185.653,148.953-334.98,190.713-446.066l1.371-.392c-6.765,39.266-40.578,104.573-58.082,142.959-45.007,98.705-91.007,198.876-126.231,301.523-8.466,24.659-19.33,52.73-24.017,78.392l-2.12,7.252-6.923,1.939Z" style="fill: #220573;"/>
            <path d="M4448.081,3236.033c-2.255,1.264-4.6,2.436-6.946,3.607,1.894-2.075,4.33-3.246,6.946-3.607Z" style="fill: #1ca7af;"/>
            <g>
              <path d="M4574.998,3000.332c-4.51,7.756-12.269,12.808-19.756,17.68-18.761,11.993-37.434,24.084-56.104,36.082,9.65-3.158,17.86-11.095,28.052-11.817,17.228-1.172,28.774,20.203,24.716,36.984-4.059,16.777-17.86,29.136-30.939,40.411-11.546,9.831-23.093,19.754-34.639,29.585,10.824-7.849,27.061,4.33,27.603,17.68.542,13.35-8.659,24.987-18.312,34.28-14.072,13.799-30.129,25.524-47.538,34.817-2.616.361-5.052,1.533-6.946,3.607,2.345-1.172,4.691-2.343,6.946-3.607,7.578-1.172,16.779,4.418,19.305,12.359,3.336,10.641-1.535,22.097-7.488,31.571-16.147,25.436-41.495,44.921-70.179,54.03,4.962-1.172,10.463,3.7,11.185,9.02.813,5.862-2.165,11.549-5.413,16.508-23,34.91-66.479,54.21-107.793,50.876-28.233-2.348-33.014-11.548-39.869-38.156-6.856-26.612-8.569-54.483-5.052-81.725.452-3.788,1.174-7.849,3.61-10.734,2.524-2.889,7.485-3.973,10.192-1.264-11.456-37.165-10.734-77.845,1.804-114.56,1.894-5.413,4.239-11.002,9.111-13.98,4.871-2.885,12.72-1.172,13.801,4.418-2.797-17.138-3.788-34.544-2.887-51.867.542-9.65,2.074-20.115,9.02-26.7,7.036-6.673,21.018-5.95,23.996,3.251-3.248-35.183-6.316-71.626,5.052-105.091,3.491-10.272,8.544-14.29,18.671-10.734,12.628,4.149,23.273,14.072,28.413,26.343,2.887-10.465.813-21.652,1.986-32.386,1.081-10.822,7.126-22.731,17.86-24.264,13.079-1.894,22.37,11.725,28.233,23.454-7.036-30.131,5.233-63.957,30.039-82.628,13.944-10.548,23.146-3.407,27.964,13.262,3.698,13.35,6.224,26.969,7.395,40.772,3.519-16.825,10.366-48.685,31.868-50.233,5.469-.394,11.097,1.32,15.3,4.842,6.34,5.312,8.333,14.584,8.487,22.479.273,25.885-10.192,50.515-20.474,74.326,13.079-3.339,26.429-5.594,39.869-6.946,7.126-.718,15.063-.991,20.567,3.607,6.856,5.774,6.765,16.781,2.345,24.449Z" style="fill: #1ca7af;"/>
              <path d="M4515.97,2883.41c-49.754,128.839-173.902,399.729-235.527,515.557,47.727-123.735,170.961-394.079,235.527-515.557Z" style="fill: #220573;"/>
            </g>
            <g>
              <path d="M4104.273,2923.872c2.459,8.629.716,17.722-.969,26.494-4.374,21.833-8.618,43.67-12.927,65.441,4.419-9.142,4.397-20.561,10.946-28.403,11.106-13.222,34.512-6.713,43.784,7.851,9.269,14.561,8.598,33.075,7.648,50.317-.928,15.136-1.789,30.336-2.717,45.472,1.854-13.241,21.89-16.489,31.881-7.619,9.992,8.87,11.992,23.569,11.99,36.968.179,19.708-2.513,39.407-7.895,58.393-1.555,2.135-2.4,4.702-2.22,7.505.783-2.502,1.566-5.004,2.22-7.505,4.413-6.271,14.821-9.022,22.293-5.333,9.979,4.978,14.852,16.433,17.548,27.293,7.122,29.274,3.575,61.049-9.761,88.028,2.598-4.387,9.923-4.97,14.256-1.8,4.786,3.481,6.817,9.57,8.136,15.35,9.192,40.782-7.065,85.489-38.124,112.935-21.275,18.708-31.219,15.77-55.14,2.252-23.924-13.521-45.189-31.62-62.372-53.05-2.415-2.953-4.839-6.29-5.228-10.045-.331-3.822,2.331-8.148,6.159-8.218-34.717-17.528-63.518-46.265-81.268-80.764-2.585-5.119-4.985-10.686-3.75-16.26,1.301-5.51,7.979-9.975,12.755-6.877-14.285-9.873-27.51-21.233-39.363-33.898-6.575-7.084-13.05-15.447-12.975-25.018.074-9.697,10.293-19.267,18.986-15.03-27.596-22.065-55.974-45.133-72.194-76.535-2.185-4.233-4.194-9.297-2.366-13.798,3.047-7.812,25.239-17.443,46.269-9.289-5.535-9.339-15.033-15.604-21.95-23.895-7.045-8.285-11.431-20.901-5.089-29.696,7.708-10.735,23.963-7.981,36.478-4.068-26.584-15.832-42.44-48.133-38.682-78.952,2.075-17.361,13.601-19.036,28.95-10.944,12.181,6.597,23.743,14.224,34.498,22.955-9.678-14.205-27.878-41.237-14.078-57.799,3.51-4.213,8.648-7.077,14.101-7.662,8.225-.882,16.286,4.114,22.079,9.479,18.835,17.758,29.317,42.381,39.336,66.304,6.667-11.737,14.303-22.917,22.652-33.536,4.426-5.631,9.735-11.538,16.864-12.312,8.915-.933,16.78,6.767,19.238,15.27Z" style="fill: url(#linear-gradient-9);"/>
              <path d="M3979.106,2885.288c60.56,130.076,168.477,406.145,207.99,527.269-54.416-116.755-164.226-393.291-207.99-527.269Z" style="fill: #220573;"/>
            </g>
            <g>
              <path d="M4342.605,3082.004c-1.261,8.883-6.548,16.483-11.653,23.814-12.87,18.171-25.621,36.398-38.406,54.539,7.753-6.557,12.373-16.999,21.545-21.503,15.521-7.568,34.262,7.892,36.815,24.967,2.552,17.071-5.586,33.715-13.461,49.083-6.999,13.453-13.963,26.991-20.962,40.444,7.075-11.345,26.702-6.17,32.226,5.995,5.525,12.165,1.378,26.408-4.068,38.651-7.846,18.08-18.312,34.984-30.945,50.145-2.288,1.319-4.104,3.321-5.078,5.956,1.732-1.968,3.465-3.936,5.078-5.956,6.58-3.937,17.208-2.22,22.536,4.187,7.095,8.604,6.892,21.051,4.941,32.069-5.39,29.642-21.544,57.233-44.693,76.464,4.156-2.952,11.086-.509,13.757,4.149,2.959,5.126,2.339,11.514,1.196,17.332-8.175,40.998-41.198,75.239-80.73,87.695-27.041,8.447-34.933,1.721-51.296-20.352-16.364-22.077-28.439-47.256-35.43-73.819-1.007-3.679-1.865-7.714-.694-11.303,1.251-3.627,5.441-6.497,8.967-5.006-24.597-30.124-39.234-68.086-41.432-106.821-.282-5.728-.212-11.789,3.181-16.381,3.428-4.506,11.345-5.871,14.449-1.1-9.039-14.826-16.507-30.581-22.19-46.97-3.129-9.145-5.646-19.418-1.688-28.132,4.008-8.83,17.235-13.421,23.455-6.017-16.247-31.376-32.801-63.986-34.86-99.269-.277-4.756-.053-10.199,3.446-13.569,5.959-5.9,30.15-5.68,46.051,10.316-1.262-10.782-7.394-20.367-10.345-30.754-3.07-10.433-1.95-23.742,7.418-29.201,11.405-6.676,25.138,2.446,34.983,11.108-17.856-25.27-19.216-61.226-3.257-87.858,8.951-15.019,20.164-11.865,30.899,1.766,8.449,10.978,15.913,22.645,22.192,34.994-3.07-16.913-8.713-49.008,10.626-58.532,4.919-2.423,10.778-2.952,15.997-1.27,7.873,2.537,13.208,10.377,16.321,17.634,9.992,23.88,9.563,50.638,8.995,76.567,10.862-8.014,22.382-15.127,34.326-21.436,6.333-3.347,13.584-6.586,20.413-4.396,8.524,2.771,12.582,13.003,11.372,21.77Z" style="fill: #89d1d8;"/>
              <path d="M4243.922,2995.883c2.327,135.053-10.634,434.877-24.243,566.29-2.381-135.073,10.601-434.045,24.243-566.29Z" style="fill: #028799;"/>
            </g>
            <g>
              <path d="M4397.659,3377.02c-64.282,431.296-42.111,282.542-46.908,314.722-10.018,12.507-29.186,37.923-64.404,77.845h-174.545c-9.921,0-18.492-8.932-20.296-21.199-4.608-30.895,18.527,124.227-55.384-371.368h361.537Z" style="fill: #695ada;"/>
              <path d="M4397.659,3377.02c-64.406,431.417-42.192,282.621-46.998,314.81-20.567,26.519-42.034,52.501-64.314,77.757h-174.545c-9.921,0-18.492-8.932-20.296-21.199,18.402-12.989,37.617-24.533,55.565-38.517,84.615-65.468,134.568-181.426,139.996-288.92.722-14.614.542-29.497-1.081-43.93h111.673Z" style="fill: url(#linear-gradient-10);"/>
              <path d="M4397.64,3377.004c-.13.867-10.204,68.15-9.562,63.86h-342.413c-.13-.867-10.204-68.15-9.562-63.86h361.537Z" style="fill: url(#linear-gradient-11);"/>
              <rect x="4011.026" y="3377.003" width="411.689" height="43.926" style="fill: url(#linear-gradient-12);"/>
            </g>
          </g>
          <path d="M1418.591,2193.278v42.485c0,21.467-17.409,38.878-38.876,38.878h-663.9c-21.377,0-38.788-17.411-38.788-38.878v-42.485c0-21.467,17.411-38.786,38.788-38.786h663.9c21.467,0,38.876,17.318,38.876,38.786Z" style="fill: #090db1;"/>
          <path d="M1480.468,2041.955v67.199c0,24.088-19.483,43.569-43.567,43.569h-721.451c-23.993,0-43.567-19.481-43.567-43.569v-67.199c0-24.084,19.574-43.569,43.567-43.569h721.451c24.084,0,43.567,19.485,43.567,43.569Z" style="fill: #2e30c0;"/>
          <path d="M1327.403,2112.516c-2.327-26.15-1.696-52.525-1.696-78.757,27.156.212,54.886-2.273,81.952,0,.289,25.167-.895,53.595-.904,78.761-26.452.235-52.905.23-79.352-.005Z" style="fill: #788bf1;"/>
          <path d="M730.526,2112.516c-2.327-26.15-1.696-52.525-1.696-78.757,27.156.212,54.886-2.273,81.952,0,.289,25.167-.895,53.595-.904,78.761-26.452.235-52.905.23-79.352-.005Z" style="fill: #788bf1;"/>
          <path d="M897.536,2114.59c-.695-25.383.898-50.681,2.183-76.024,101.863-1.646,203.941-.424,305.826-.383.176,14.085,3.753,68.753-2.611,77.778-101.605.361-203.86,2.07-305.398-1.371Z" style="fill: #788bf1;"/>
          <g>
            <path d="M1374.492,1799.443l44.77,41.7-83.583,89.543-44.771-41.7c-12.637,7.4-26.177,13.359-40.257,17.872v60.835h-122.577v-60.835c-12.637-3.973-24.733-9.026-36.105-15.347l-43.688,42.606-85.569-87.738,43.507-42.423c-3.972-7.402-7.221-15.164-10.29-23.108l-60.477,2.889-5.777-122.217,60.477-2.887c3.43-12.819,8.124-25.276,13.72-37.19l-44.41-41.341,83.584-89.541,44.41,41.341c12.636-7.402,26.356-13.359,40.619-17.872v-60.659h122.577v60.659c12.637,4.152,24.732,9.207,36.286,15.523l43.506-42.421,85.569,87.553-43.506,42.606c3.791,7.4,7.22,15.164,10.109,22.927l60.657-2.889,5.777,122.395-60.837,2.891c-3.43,12.817-7.943,25.091-13.72,36.826Z" style="fill: #f4782f;"/>
            <path d="M1307.003,1710.422c0,65.001-52.718,117.725-117.722,117.725-65.625,0-117.722-53.568-117.722-117.725,0-65.001,52.721-117.72,117.722-117.72s117.722,53.063,117.722,117.72Z" style="fill: #fefefe;"/>
          </g>
          <g>
            <path d="M861.57,1827.883l22.195,20.673-41.437,44.392-22.196-20.673c-6.265,3.669-12.977,6.623-19.958,8.86v30.16h-60.769v-30.16c-6.265-1.97-12.262-4.475-17.9-7.608l-21.659,21.122-42.422-43.497,21.569-21.032c-1.969-3.67-3.58-7.517-5.101-11.456l-29.982,1.432-2.864-60.59,29.982-1.431c1.701-6.355,4.028-12.531,6.802-18.437l-22.017-20.495,41.438-44.391,22.017,20.495c6.264-3.67,13.066-6.623,20.137-8.86v-30.072h60.769v30.072c6.265,2.058,12.261,4.564,17.989,7.696l21.569-21.031,42.422,43.405-21.569,21.122c1.88,3.669,3.579,7.517,5.012,11.366l30.071-1.432,2.864,60.679-30.161,1.433c-1.701,6.354-3.938,12.439-6.802,18.257Z" style="fill: #fefefe;"/>
            <path d="M828.112,1783.749c0,32.225-26.136,58.363-58.362,58.363-16.888,0-32.052-7.18-42.68-18.613,0,0-.058,0-.058-.056-34.442-37.089-8.284-98.055,42.738-98.055,32.237,0,58.362,26.251,58.362,58.361Z" style="fill: #695ada;"/>
          </g>
        </g>
      </g>
    </g>
  </g>
</svg>