<?xml version="1.0" encoding="utf-8"?>
<!-- Generator: Adobe Illustrator 27.5.0, SVG Export Plug-In . SVG Version: 6.00 Build 0)  -->
<svg version="1.1" xmlns="http://www.w3.org/2000/svg" xmlns:xlink="http://www.w3.org/1999/xlink" x="0px" y="0px"
	 viewBox="0 0 500 500" style="enable-background:new 0 0 500 500;" xml:space="preserve">
<g id="BACKGROUND">
	<rect style="fill:#B9CFE6;" width="500" height="500"/>
	<circle style="fill:#CBDEEE;" cx="327.304" cy="154.315" r="59.92"/>
	<circle style="fill:#CBDEEE;" cx="134.016" cy="190.556" r="58.021"/>
</g>
<g id="OBJECTS">
	<ellipse style="fill:#8EADD5;" cx="250.105" cy="429.877" rx="199.088" ry="14.157"/>
	<g>
		<path style="fill:#2E344B;" d="M156.549,422.752c-2.732,1.402-4.409,4.141-2.889,6.863c1.519,2.722,12.16,2.468,22.113,2.506
			c9.953,0.038,15.858-0.195,16.802-6.193c0.945-5.998-12.046-9.97-13.586-9.966c-1.54,0.004-2.494,1.413-2.494,1.413
			L156.549,422.752z"/>
		<path style="fill:#D8877B;" d="M156.058,397.205c0.028,0.353-1.958,27.519-1.182,29.826c0.776,2.307,18.771,2.18,18.771,2.18
			s-0.246-7.562,2.85-11.835l-5.908-2.294c0,0,4.513-15.245,4.59-17.264C175.254,395.797,156.058,397.205,156.058,397.205z"/>
		<path style="fill:#B44E50;" d="M156.058,397.205c0.012,0.145-0.318,4.838-0.656,10.468c5.919,1.106,12.139,0.538,17.768-1.598
			c0.372-1.343,0.733-2.675,1.045-3.874l-2.081-5.338C166.738,396.422,156.058,397.205,156.058,397.205z"/>
		<path style="fill:#B44E50;" d="M164.948,422.659c-0.273,0.037-0.542,0.094-0.8,0.194c-0.293,0.114-0.57,0.311-0.844,0.466
			c-0.429,0.242-0.889,0.466-1.362,0.52c-0.395,0.046-0.773,0.009-1.125-0.148c-0.201-0.09-0.329-0.178-0.494-0.328
			c-0.191-0.173-0.305-0.396-0.599-0.439c-0.201-0.029-0.398,0.062-0.491,0.247c-0.312,0.622,0.461,1.26,0.932,1.537
			c0.508,0.298,1.11,0.414,1.693,0.413c0.645,0,1.292-0.207,1.866-0.488c0.68-0.333,1.247-0.757,1.582-1.451
			C165.423,422.944,165.228,422.621,164.948,422.659z"/>
		<path style="fill:#B44E50;" d="M173.647,429.211c0,0-0.246-7.562,2.85-11.835l-0.626-0.243c-2.038,1.415-3.535,3.6-4.412,5.946
			c-0.732,1.956-1.083,4.021-1.279,6.106C172.232,429.221,173.647,429.211,173.647,429.211z"/>
		<path style="fill:#2E344B;" d="M96.076,420.195c-2.834,1.181-4.723,3.779-3.424,6.613c1.299,2.834,11.926,3.424,21.845,4.251
			s15.823,1.063,17.24-4.841c1.417-5.904-11.218-10.893-12.753-11.011c-1.535-0.118-2.598,1.21-2.598,1.21L96.076,420.195z"/>
		<path style="fill:#D8877B;" d="M97.611,394.689c0,0.354-4.133,27.277-3.542,29.639c0.59,2.362,18.539,3.66,18.539,3.66
			s0.354-7.557,3.779-11.572l-5.707-2.755c0,0,5.707-14.839,5.944-16.846C116.859,394.807,97.611,394.689,97.611,394.689z"/>
		<path style="fill:#B44E50;" d="M97.611,394.689c0,0.146-0.701,4.798-1.484,10.383c5.813,1.571,12.058,1.499,17.839-0.185
			c0.477-1.309,0.943-2.609,1.348-3.779l-1.652-5.486C108.319,394.755,97.611,394.689,97.611,394.689z"/>
		<path style="fill:#6779B7;" d="M98.556,247.794c-2.834,9.447-7.557,39.204-4.251,53.373c3.306,14.17,3.779,37.55,4.723,51.72
			c0.945,14.17-5.668,46.052-5.668,46.052s17.004,5.668,25.742,4.487c0,0,12.044-45.58,16.295-62.348
			c4.251-16.768,5.668-35.425,5.668-35.425s7.085,29.993,9.683,45.344c2.598,15.351,1.417,52.665,1.417,52.665
			s14.406,3.07,25.506,0.945c0,0,0.472-55.971-1.417-88.562s-13.461-69.433-13.461-69.433L98.556,247.794z"/>
		<path style="fill:#2E344B;" d="M164.041,250.81c-0.234-0.813-0.44-1.517-0.615-2.104l-2.126-2.065l-62.744,1.153
			c-0.406,1.353-0.851,3.134-1.305,5.215C134.497,269.474,159.195,254.248,164.041,250.81z"/>
		<path style="fill:#D8877B;" d="M216.324,226.224c1.338,1.181,6.062,4.172,8.108,4.251c2.047,0.079,9.132,0.787,11.178,1.338
			c2.047,0.551,1.706,1.633,0.919,2.184c-0.787,0.551-4.225,1.044-4.225,1.044s5.668,3.464,6.928,4.487
			c1.26,1.023,1.023,2.598-0.551,2.834c0,0,1.496,0.866,0.945,2.204c-0.551,1.338-2.047,0.945-2.047,0.945s0.158,2.204-1.889,2.44
			c0,0,0.079,1.417-1.968,1.181c-2.047-0.236-7.479-3.779-8.738-4.487c-1.259-0.709-15.272-7.321-15.272-7.321L216.324,226.224z"/>
		<path style="fill:#B44E50;" d="M215.481,227.638l-5.77,9.685c0,0,2.593,1.224,5.647,2.674c3.293-4.874,4.236-9.507,4.492-11.387
			c-0.525-0.303-1.036-0.616-1.505-0.92L215.481,227.638z"/>
		<path style="fill:#2E344B;" d="M102.886,119.87c2.362-0.787,8.39,15.297,5.117,16.768c-3.273,1.471-7.715-4.172-7.715-4.172
			l-0.787-7.4L102.886,119.87z"/>
		<path style="fill:#D8877B;" d="M104.539,135.142c3.149-1.732,3.621-1.811,8.187-1.181c4.566,0.63,9.132-0.866,9.132-0.866
			l4.723-7.557c0,0-1.889-11.493-2.362-11.493c-0.472,0-8.345,2.834-12.281,3.936c-3.936,1.102-12.438,4.408-12.438,4.408
			L104.539,135.142z"/>
		<path style="fill:#2E344B;" d="M142.88,104.086c-27.756-3.146-30.37,21.457-29.544,36.972
			c0.825,15.515-27.234,36.972-10.233,67.507c17,30.535,47.865,22.282,56.943,5.447c9.078-16.835-0.33-47.37,1.32-67.011
			C163.017,127.358,167.638,106.892,142.88,104.086z"/>
		<path style="fill:#B44E50;" d="M99.998,123.647l4.541,11.495c1.89-1.039,2.819-1.48,4.244-1.533
			c-2.955-3.609-4.826-8.092-5.282-12.736c-0.221,0.082-0.433,0.161-0.643,0.24L99.998,123.647z"/>
		<path style="fill:#FFFFFF;" d="M115.088,161.829c-13.934-0.472-24.635-8.9-25.978-13.698
			c-0.551-1.968,18.893-11.493,18.893-11.493s-5.668-4.645-5.117-16.768c0,0-29.836,10.076-38.101,22.357
			c-8.266,12.281,24.561,38.023,40.62,44.399c0,0-0.708,16.059-0.945,27.868c-0.236,11.808-7.321,33.772-7.321,33.772
			s31.174,17.949,68.488,1.181c0,0-5.668-21.727-5.432-29.048c0.236-7.321,4.251-15.115,3.306-23.144
			c0,0,9.328,15.941,17.358,24.207c8.03,8.266,31.528,19.011,31.528,19.011s6.14-8.03,7.557-13.698c0,0-24.325-16.768-26.923-21.019
			c-2.598-4.251-14.17-28.812-19.602-33.299c-5.432-4.487-15.219-7.352-19.247-7.439c-4.029-0.087-15.705,3.424-15.705,3.424
			L115.088,161.829z"/>
		<path style="fill:#D8877B;" d="M125.715,149.43c0,0-1.417,9.328-2.952,11.218c-1.535,1.889-7.675,1.181-7.675,1.181
			s3.188,14.052,18.657,14.878c15.469,0.827,20.428-11.69,20.428-11.69s-4.841-0.354-6.731-1.417
			c-1.889-1.063-1.535-6.494-1.535-6.494L125.715,149.43z"/>
		<path style="fill:#B44E50;" d="M145.789,159.585l-1.592-3.13l-18.482-7.025c0,0-0.631,4.141-1.506,7.464
			C134.571,166.671,145.789,159.585,145.789,159.585z"/>
		<path style="fill:#D8877B;" d="M123.899,135.281c0,0-0.949-2.022-4.787-0.66c-3.837,1.362-5.075,11.43,3.466,9.573
			c0,0,5.067,18.804,23.437,15.928c16.34-2.558,12.874-29.132,12.874-29.132s-4.622-3.631-7.923-9.738
			C150.968,121.251,143.541,130.989,123.899,135.281z"/>
		<path style="fill:#B44E50;" d="M238.606,242.047c-0.285-0.224-0.639-0.349-0.966-0.503c-0.312-0.147-0.623-0.294-0.934-0.443
			c-0.667-0.319-1.337-0.63-2.005-0.944c-0.669-0.314-1.332-0.642-2.001-0.956c-0.313-0.147-0.629-0.288-0.942-0.433
			c-0.284-0.132-0.55-0.276-0.867-0.296c-0.026-0.002-0.032,0.029-0.019,0.046c0.222,0.279,0.548,0.428,0.852,0.602
			c0.299,0.17,0.597,0.343,0.9,0.506c0.627,0.338,1.262,0.664,1.896,0.99c0.635,0.326,1.271,0.646,1.915,0.952
			c0.311,0.148,0.623,0.294,0.935,0.44c0.324,0.151,0.659,0.358,1.011,0.429C238.582,242.477,238.806,242.204,238.606,242.047z"/>
		<path style="fill:#B44E50;" d="M237.666,245.065c-1.252-0.724-2.611-1.333-3.932-1.921c-0.656-0.292-1.315-0.579-1.977-0.859
			c-0.567-0.241-1.263-0.625-1.889-0.59c-0.024,0.001-0.034,0.028-0.019,0.046c0.421,0.492,1.226,0.754,1.799,1.023
			c0.626,0.294,1.248,0.593,1.869,0.898c1.283,0.63,2.557,1.312,3.86,1.898C237.705,245.708,237.992,245.254,237.666,245.065z"/>
		<path style="fill:#B44E50;" d="M235.909,247.539c-0.581-0.296-1.207-0.514-1.798-0.795c-0.592-0.282-1.18-0.574-1.756-0.888
			c-0.567-0.309-1.111-0.658-1.673-0.974c-0.505-0.284-1.008-0.519-1.599-0.488c-0.048,0.003-0.079,0.076-0.027,0.1
			c1.127,0.524,2.133,1.266,3.213,1.875c0.553,0.312,1.116,0.606,1.692,0.875c0.567,0.265,1.157,0.566,1.759,0.742
			C235.982,248.062,236.159,247.667,235.909,247.539z"/>
		<path style="fill:#B44E50;" d="M230.038,234.554c-0.5,0.163-0.923,0.493-1.405,0.702c-0.49,0.213-1.013,0.361-1.54,0.449
			c-0.528,0.088-1.07,0.105-1.603,0.062c-0.539-0.043-1.057-0.189-1.59-0.265c-0.261-0.037-0.449,0.296-0.191,0.452
			c0.987,0.593,2.365,0.594,3.47,0.437c0.579-0.083,1.144-0.235,1.685-0.458c0.547-0.226,1.132-0.482,1.484-0.976
			C230.488,234.762,230.256,234.482,230.038,234.554z"/>
		<path style="fill:#B44E50;" d="M228.572,237.055c-0.457-0.059-0.928,0.518-1.207,0.809c-0.372,0.388-0.707,0.81-0.997,1.262
			c-0.284,0.443-0.524,0.913-0.724,1.4c-0.205,0.497-0.437,1.047-0.387,1.591c0.02,0.217,0.322,0.344,0.441,0.12
			c0.239-0.449,0.323-0.96,0.503-1.435c0.182-0.479,0.414-0.938,0.683-1.374c0.263-0.426,0.56-0.833,0.893-1.208
			c0.175-0.197,0.367-0.376,0.547-0.567c0.137-0.144,0.293-0.326,0.316-0.53C228.645,237.084,228.605,237.059,228.572,237.055z"/>
		<path style="fill:#B44E50;" d="M122.001,140.026c0.003-0.046,0.01-0.091,0.004-0.135c0.043-1.042-0.232-2.366-1.152-2.962
			c-0.439-0.284-1.031-0.339-1.487-0.065c-0.395,0.237-0.744,0.721-0.699,1.193c0.018,0.192,0.224,0.361,0.412,0.236
			c0.156-0.103,0.249-0.212,0.367-0.355c0.082-0.099,0.166-0.213,0.272-0.288c0.232-0.165,0.523-0.069,0.713,0.115
			c0.253,0.246,0.343,0.612,0.408,0.947c0.031,0.158,0.04,0.323,0.044,0.486c-0.098,0.017-0.194,0.04-0.287,0.072
			c-0.609,0.21-1.122,0.64-1.317,1.27c-0.187,0.607,0.013,1.323,0.566,1.666c0.478,0.297,1.257,0.265,1.432-0.365
			c0.055-0.198-0.098-0.367-0.289-0.38c-0.086-0.006-0.244-0.03-0.31-0.042c-0.057-0.01-0.196-0.059-0.226-0.076
			c-0.121-0.066-0.175-0.21-0.145-0.377c0.041-0.221,0.185-0.348,0.364-0.447c0.071-0.04,0.183-0.078,0.3-0.106
			c0.07,0.087,0.158,0.161,0.282,0.195c0.324,0.089,0.626-0.109,0.729-0.414c0.018-0.053,0.015-0.105,0.02-0.158
			c0,0,0.001,0,0.001,0C122.001,140.035,122.001,140.03,122.001,140.026z"/>
		<path style="fill:#B44E50;" d="M159.02,132.298c-0.068-0.825-0.13-1.309-0.13-1.309s-4.622-3.631-7.923-9.738
			c0,0-7.427,9.738-27.069,14.03c0,0,17.021-1.919,26.759-11.492C150.659,123.789,155.239,129.359,159.02,132.298z"/>
		<path style="fill:#6779B7;" d="M163.67,194.598c-0.523-1.798-1.251-4.128-2.867-5.212c-0.221-0.148-0.481,0.096-0.426,0.328
			c0.233,0.982,0.78,1.773,1.212,2.675c0.447,0.935,0.804,1.91,1.085,2.907c0.561,1.996,0.797,4.066,0.766,6.137
			c-0.066,4.494-1.27,8.985-2.546,13.268c-0.027,0.089,0.113,0.153,0.154,0.065c2.023-4.352,3.474-8.898,3.486-13.742
			C164.539,198.862,164.274,196.676,163.67,194.598z"/>
		<path style="fill:#6779B7;" d="M98.218,122.93c0.008,2.774,0.372,5.531,1.044,8.221c0.657,2.626,1.609,5.18,2.823,7.6
			c0.117,0.234,0.239,0.471,0.361,0.708c0.392-0.205,0.775-0.403,1.142-0.593c-1.132-2.068-2.06-4.243-2.759-6.495
			c-0.713-2.299-1.187-4.665-1.447-7.057c-0.122-1.123-0.182-2.249-0.21-3.378c-0.006-0.218-0.018-0.456-0.031-0.702
			c-0.296,0.113-0.612,0.234-0.936,0.36C98.2,122.22,98.217,122.737,98.218,122.93z"/>
		<path style="fill:#6779B7;" d="M217.16,224.832c-0.23-0.162-0.472-0.332-0.724-0.51c-0.346,0.892-0.612,1.831-0.967,2.663
			c-0.764,1.789-1.66,3.524-2.655,5.195c-0.974,1.635-2.04,3.215-3.147,4.762c-0.388,0.542-0.818,1.086-1.243,1.64
			c0.439,0.215,0.846,0.412,1.223,0.594c0.34-0.501,0.668-1,0.99-1.467c1.114-1.612,2.184-3.256,3.156-4.957
			C215.253,230.196,216.276,227.569,217.16,224.832z"/>
		<path style="fill:#6779B7;" d="M164.316,244.17c-0.719,0.359-1.444,0.708-2.171,1.049c-2.276,1.066-4.619,1.957-7.002,2.749
			c-4.652,1.546-9.42,2.712-14.278,3.396c-9.813,1.38-20.068,0.681-29.624-1.914c-2.681-0.728-5.289-1.661-7.836-2.771
			c-1.739-0.758-3.364-1.679-4.972-2.647c-0.052,0.177-0.104,0.353-0.154,0.521c3.097,2.358,6.85,3.965,10.483,5.15
			c4.703,1.535,9.6,2.48,14.518,2.989c10.178,1.053,20.528,0.039,30.349-2.794c2.731-0.788,5.399-1.803,8.016-2.91
			c1.026-0.434,2.026-0.911,3.01-1.426C164.546,245.124,164.435,244.663,164.316,244.17z"/>
		<path style="fill:#6779B7;" d="M140.514,180.658c5.015-0.777,8.853-3.629,12.218-7.282c1.991-2.161,3.95-4.898,5.136-7.842
			c-0.403-0.087-0.79-0.163-1.161-0.228c-0.042,0.105-0.071,0.21-0.116,0.314c-0.864,1.994-2.049,3.854-3.388,5.561
			c-2.873,3.664-6.512,6.841-11.107,8.005c-8.676,2.197-18.795,0.237-24.931-6.603c-2.856-3.184-4.334-6.893-4.872-10.964
			c-0.309-0.034-0.609-0.086-0.914-0.128c0.179,3.7,1.855,7.416,4.023,10.29c2.766,3.667,6.653,6.282,10.988,7.743
			C130.875,181.035,135.846,181.381,140.514,180.658z"/>
		<path style="fill:#2E344B;" d="M121.05,394.134c-3.444,0.333-6.914,0.383-10.365,0.136c-3.204-0.229-6.386-0.763-9.472-1.66
			c-1.135-0.33-2.237-0.74-3.331-1.168c1.086-3.788,1.037-7.776,1.298-11.68c0.283-4.225,0.967-8.386,1.821-12.531
			c1.673-8.121,3.749-16.21,3.828-24.551c0.082-8.621-0.879-17.402-2.12-25.924c-1.236-8.479-3.652-16.736-4.308-25.306
			c-0.358-4.676-0.289-9.386,0.187-14.051c0.165-1.619,0.402-3.219,0.68-4.809c0.104,0.05,0.227,0.075,0.375,0.041
			c2.998-0.678,5.849-2.426,8.141-4.433c1.174-1.028,2.223-2.192,3.148-3.448c0.447-0.606,0.86-1.237,1.237-1.889
			c0.372-0.644,0.878-1.389,0.931-2.145c0.032-0.46-0.584-0.671-0.886-0.367c-0.48,0.482-0.715,1.222-1.053,1.809
			c-0.359,0.624-0.751,1.23-1.174,1.813c-0.873,1.203-1.892,2.301-3.004,3.287c-2.224,1.972-4.759,3.235-7.522,4.253
			c0.53-2.828,1.185-5.63,1.85-8.447c0.132-0.561-0.661-0.767-0.854-0.236c-2.796,7.688-3.69,16.336-3.526,24.474
			c0.17,8.418,2.082,16.5,3.744,24.71c1.748,8.638,2.694,17.526,3.049,26.335c0.176,4.37,0.014,8.725-0.626,13.054
			c-0.616,4.168-1.599,8.268-2.538,12.372c-1.019,4.455-1.996,8.93-2.5,13.477c-0.509,4.593-0.256,9.226-1.319,13.745
			c-0.576-0.233-1.151-0.469-1.727-0.701c-0.057,0.313-0.113,0.628-0.168,0.928c1.753,1.043,3.698,1.788,5.642,2.418
			c3.103,1.004,6.319,1.628,9.561,1.962c3.577,0.369,7.182,0.311,10.765,0.065c0.115-0.008,0.23-0.021,0.345-0.03
			c0.133-0.503,0.27-1.025,0.413-1.565C121.396,394.093,121.223,394.117,121.05,394.134z"/>
		<path style="fill:#2E344B;" d="M143.963,277.25c-0.089-0.293-0.458-0.257-0.56,0c-0.423,1.068-0.347,2.284-0.4,3.417
			c-0.06,1.272-0.114,2.544-0.169,3.817c-0.108,2.491-0.212,4.983-0.309,7.475c-0.096,2.482-0.238,4.971-0.614,7.429
			c-0.178,1.167-0.406,2.328-0.704,3.471c-0.295,1.134-0.784,2.24-0.967,3.396c-0.04,0.249,0.253,0.38,0.405,0.171
			c1.292-1.792,1.703-4.45,2.089-6.582c0.431-2.384,0.653-4.8,0.81-7.215c0.166-2.553,0.254-5.111,0.36-7.667
			c0.053-1.272,0.108-2.544,0.158-3.817C144.111,279.878,144.336,278.48,143.963,277.25z"/>
		<path style="fill:#2E344B;" d="M149.891,319.704c-0.778-3.191-1.59-6.381-2.615-9.503c-0.992-3.022-2.146-6.147-4.03-8.735
			c-0.225-0.31-0.678-0.05-0.514,0.301c1.271,2.724,2.506,5.422,3.411,8.296c0.866,2.748,1.549,5.551,2.228,8.35
			c1.462,6.03,2.703,12.116,3.795,18.224c2.19,12.245,3.374,24.657,3.686,37.089c0.175,6.988,0.132,13.987-0.24,20.968
			c-0.049,0.922,1.396,0.923,1.436,0C158.119,369.562,155.856,344.162,149.891,319.704z"/>
		<path style="fill:#2E344B;" d="M177.717,394.99c-2.719,0.625-5.484,1.03-8.271,1.183c-3.152,0.172-6.316,0.051-9.458-0.238
			c-1.76-0.162-3.516-0.375-5.266-0.623c-0.769-0.109-1.571-0.25-2.369-0.333c-0.005,0.359-0.011,0.718-0.016,1.06
			c0.401,0.092,0.814,0.142,1.152,0.203c1.603,0.293,3.23,0.492,4.848,0.686c3.527,0.421,7.083,0.657,10.636,0.533
			c2.936-0.103,5.866-0.477,8.74-1.09C177.714,395.927,177.716,395.463,177.717,394.99z"/>
		<path style="fill:#2E344B;" d="M167.231,262.629c-0.711-0.24-1.411-0.522-2.092-0.876c-1.099-0.57-2.153-1.264-3.104-2.057
			c-0.495-0.413-0.966-0.856-1.407-1.327c-0.411-0.439-0.766-0.925-1.265-1.27c-0.214-0.148-0.492,0.096-0.427,0.329
			c0.333,1.195,1.54,2.272,2.426,3.086c1.014,0.93,2.144,1.716,3.363,2.353c0.908,0.474,1.872,0.884,2.866,1.191
			C167.469,263.571,167.35,263.098,167.231,262.629z"/>
		<path style="fill:#B44E50;" d="M104.456,420.767c-0.275,0.015-0.547,0.051-0.813,0.13c-0.301,0.09-0.593,0.265-0.878,0.397
			c-0.447,0.207-0.924,0.394-1.399,0.41c-0.397,0.014-0.771-0.053-1.11-0.237c-0.194-0.105-0.314-0.203-0.467-0.366
			c-0.177-0.188-0.273-0.419-0.562-0.485c-0.198-0.045-0.402,0.031-0.509,0.207c-0.36,0.595,0.36,1.293,0.808,1.606
			c0.482,0.337,1.074,0.5,1.655,0.546c0.643,0.051,1.305-0.104,1.899-0.339c0.704-0.279,1.303-0.656,1.692-1.32
			C104.907,421.089,104.738,420.752,104.456,420.767z"/>
		<path style="fill:#B44E50;" d="M112.608,427.988c0,0,0.354-7.557,3.779-11.572l-0.605-0.292c-2.144,1.249-3.809,3.308-4.87,5.578
			c-0.884,1.892-1.398,3.922-1.759,5.985C111.196,427.886,112.608,427.988,112.608,427.988z"/>
		<path style="fill:#2E344B;" d="M139.182,131.459c-0.334-0.359-0.9-0.311-1.276-0.054c-0.112,0.077-0.214,0.169-0.319,0.255
			c-0.018,0.015-0.036,0.029-0.054,0.043c-0.032,0.005-0.188,0.137-0.211,0.153c-0.073,0.05-0.148,0.098-0.223,0.144
			c-0.042,0.025-0.269,0.178-0.364,0.206c0.034-0.013,0.063-0.029-0.019-0.001c-0.042,0.015-0.083,0.031-0.125,0.045
			c-0.075,0.025-0.152,0.047-0.229,0.065c-0.077,0.019-0.156,0.031-0.234,0.045c-0.018,0.003-0.048,0.008-0.075,0.013
			c-0.011,0-0.017-0.001-0.033,0c-0.079,0.005-0.158,0.007-0.238,0.004c-0.039-0.001-0.078-0.007-0.117-0.007
			c-0.008,0-0.002,0.001-0.006,0.001c-0.074-0.01-0.148-0.021-0.223-0.028c-0.029-0.003-0.04-0.004-0.052-0.005
			c-0.061-0.012-0.123-0.023-0.183-0.041c-0.342-0.101-0.706-0.016-0.828,0.359c-0.145,0.446,0.331,0.83,0.67,1.033
			c0.332,0.199,0.746,0.266,1.126,0.297c0.735,0.06,1.501-0.24,2.13-0.592c0.367-0.206,0.83-0.452,1.025-0.839
			C139.512,132.182,139.467,131.766,139.182,131.459z"/>
		<g>
			<path style="fill:#2E344B;" d="M152.29,132.735C152.29,132.735,152.291,132.735,152.29,132.735
				c-0.02-0.019-0.037-0.033-0.047-0.04c0.011,0.01,0.023,0.019,0.034,0.029C152.282,132.729,152.283,132.73,152.29,132.735z"/>
			<path style="fill:#2E344B;" d="M155.684,134.071c-0.071-0.257-0.26-0.411-0.5-0.5c-0.211-0.079-0.427-0.115-0.65-0.14
				c-0.006-0.001-0.018-0.002-0.029-0.003c0.137,0.01-0.214-0.028-0.232-0.03c-0.087-0.007-0.174-0.008-0.261-0.014
				c-0.031-0.002-0.061-0.006-0.092-0.009c-0.077-0.015-0.154-0.027-0.231-0.045c-0.179-0.041-0.358-0.091-0.533-0.147
				c-0.068-0.022-0.135-0.047-0.202-0.072c0.007,0.004,0.016,0.008,0.018,0.011c-0.002-0.004-0.015-0.008-0.021-0.012
				c-0.013-0.005-0.027-0.009-0.04-0.014c-0.092-0.035-0.028-0.017,0.021,0.003c-0.034-0.016-0.075-0.03-0.091-0.038
				c-0.157-0.076-0.308-0.163-0.453-0.26c-0.032-0.021-0.064-0.043-0.095-0.066c0.006,0.006,0.012,0.011,0.019,0.018
				c-0.009-0.01-0.023-0.018-0.033-0.028c-0.04-0.03-0.047-0.038-0.034-0.029c-0.085-0.076-0.185-0.145-0.271-0.207
				c-0.03-0.022-0.061-0.044-0.092-0.065c-0.018-0.012-0.018-0.011-0.014-0.007c-0.196-0.154-0.377-0.238-0.633-0.264
				c-0.442-0.044-0.741,0.392-0.775,0.775c-0.026,0.298,0.159,0.558,0.328,0.786c0.153,0.206,0.326,0.367,0.527,0.525
				c0.418,0.328,0.846,0.568,1.339,0.768c0.418,0.169,0.882,0.235,1.329,0.261c0.558,0.032,1.101-0.118,1.518-0.5
				C155.685,134.597,155.749,134.309,155.684,134.071z"/>
			<path style="fill:#2E344B;" d="M152.953,133.111c-0.007-0.004-0.012-0.008-0.023-0.012c0.008,0.004,0.014,0.007,0.019,0.011
				C152.951,133.11,152.952,133.111,152.953,133.111z"/>
		</g>
		<path style="fill:#2E344B;" d="M138.684,135.824c-0.055-0.038-0.106-0.08-0.169-0.113c-0.59-0.307-1.261-0.212-1.756,0.223
			c-0.266,0.234-0.464,0.585-0.61,0.906c-0.321,0.707-0.504,1.474-0.461,2.256c0.052,0.937,0.317,2.072,1.312,2.417
			c0.956,0.331,1.85-0.461,2.224-1.271c0.322-0.699,0.508-1.469,0.45-2.243C139.618,137.244,139.418,136.208,138.684,135.824z"/>
		<path style="fill:#2E344B;" d="M153.169,137.084c-0.055-0.038-0.106-0.08-0.169-0.113c-0.59-0.307-1.261-0.212-1.756,0.223
			c-0.266,0.234-0.464,0.585-0.61,0.906c-0.321,0.707-0.504,1.474-0.461,2.256c0.052,0.937,0.317,2.072,1.312,2.417
			c0.955,0.331,1.85-0.461,2.224-1.271c0.322-0.699,0.508-1.469,0.45-2.243C154.103,138.504,153.902,137.467,153.169,137.084z"/>
		<path style="fill:#FFFFFF;" d="M137.75,135.908c-0.046-0.164-0.129-0.307-0.249-0.428c-0.065-0.051-0.131-0.101-0.196-0.152
			c-0.151-0.088-0.314-0.132-0.49-0.132c-0.133-0.005-0.258,0.023-0.374,0.083c-0.12,0.039-0.224,0.106-0.312,0.201
			c-0.094,0.088-0.161,0.192-0.201,0.312c-0.061,0.116-0.089,0.24-0.083,0.374c0.012,0.086,0.023,0.172,0.035,0.258
			c0.046,0.164,0.129,0.307,0.249,0.428c0.066,0.051,0.131,0.101,0.196,0.152c0.151,0.088,0.314,0.132,0.49,0.133
			c0.133,0.005,0.258-0.023,0.374-0.084c0.12-0.039,0.224-0.106,0.312-0.201c0.095-0.088,0.161-0.192,0.201-0.312
			c0.061-0.116,0.089-0.24,0.084-0.374C137.773,136.08,137.762,135.994,137.75,135.908z"/>
		<path style="fill:#FFFFFF;" d="M152.415,137.173c-0.046-0.164-0.129-0.307-0.249-0.428c-0.065-0.05-0.131-0.101-0.196-0.152
			c-0.151-0.088-0.314-0.132-0.49-0.132c-0.133-0.005-0.258,0.023-0.374,0.083c-0.12,0.039-0.224,0.106-0.312,0.201
			c-0.094,0.088-0.161,0.192-0.201,0.312c-0.061,0.116-0.089,0.24-0.083,0.374c0.012,0.086,0.023,0.172,0.035,0.258
			c0.046,0.164,0.129,0.307,0.249,0.428c0.066,0.051,0.131,0.101,0.196,0.152c0.151,0.088,0.314,0.132,0.49,0.132
			c0.133,0.005,0.258-0.023,0.374-0.084c0.12-0.039,0.224-0.106,0.312-0.201c0.095-0.088,0.161-0.192,0.2-0.312
			c0.061-0.116,0.089-0.24,0.084-0.374C152.438,137.345,152.427,137.259,152.415,137.173z"/>
		<path style="fill:#B44E50;" d="M146.565,142.932c-0.264-0.584-0.695-1.077-0.965-1.663c-0.129-0.281-0.248-0.559-0.326-0.86
			c-0.085-0.325-0.054-0.721-0.243-1.004c-0.217-0.324-0.632-0.309-0.852,0c-0.331,0.464-0.091,1.321,0.063,1.821
			c0.185,0.6,0.497,1.144,0.863,1.65c0.284,0.392,0.661,0.782,0.38,1.272c-0.136,0.236-0.344,0.385-0.547,0.559
			c-0.231,0.198-0.409,0.413-0.569,0.671c-0.151,0.244,0.042,0.619,0.343,0.597c0.719-0.051,1.266-0.422,1.675-1.012
			C146.809,144.355,146.868,143.602,146.565,142.932z"/>
		<path style="fill:#B44E50;" d="M146.407,149.374c-0.89-0.388-1.918-0.63-2.893-0.549c-0.847,0.07-2.229,0.407-2.398,1.404
			c-0.024,0.142,0.081,0.254,0.226,0.225c0.402-0.08,0.738-0.298,1.126-0.423c0.397-0.128,0.809-0.189,1.226-0.181
			c0.951,0.018,1.857,0.409,2.718,0.778c0.38,0.163,1.217,0.408,1.213-0.287C147.621,149.806,146.804,149.546,146.407,149.374z"/>
		<path style="fill:#C85F64;" d="M136.093,143.493c-0.108,1.169-1.564,1.99-3.253,1.834c-1.688-0.156-2.97-1.23-2.862-2.399
			c0.108-1.169,1.564-1.99,3.253-1.834C134.92,141.251,136.201,142.325,136.093,143.493z"/>
		<path style="fill:#C85F64;" d="M157.821,145.698c-0.108,1.169-1.564,1.99-3.253,1.834c-1.688-0.156-2.97-1.23-2.862-2.399
			c0.108-1.169,1.564-1.99,3.252-1.834C156.647,143.455,157.928,144.529,157.821,145.698z"/>
		<path style="fill:#C85F64;" d="M135.209,135.931c-0.027-0.041-0.053-0.081-0.083-0.12c-0.032-0.049-0.074-0.088-0.127-0.117
			c-0.008-0.006-0.016-0.012-0.025-0.017c-0.015-0.01-0.03-0.019-0.045-0.028c-0.032-0.02-0.063-0.042-0.097-0.058
			c-0.06-0.03-0.135-0.067-0.195-0.085c-0.033-0.01-0.067-0.016-0.102-0.022c-0.065-0.012-0.135-0.031-0.199-0.032
			c-0.058,0-0.121,0.016-0.179,0.026c-0.099,0.017-0.188,0.076-0.239,0.163c-0.04,0.068-0.049,0.141-0.039,0.217
			c0.007,0.054,0.027,0.101,0.052,0.149c0.014,0.026,0.027,0.052,0.042,0.077c0.036,0.06,0.08,0.098,0.13,0.142
			c0.05,0.045,0.102,0.096,0.159,0.13c0.091,0.055,0.19,0.094,0.289,0.13c0.033,0.012,0.065,0.025,0.098,0.034
			c0.077,0.022,0.14,0.014,0.215,0.008c0.072,0,0.139-0.018,0.201-0.054c0.06-0.035,0.107-0.083,0.143-0.143
			C135.279,136.214,135.286,136.049,135.209,135.931z"/>
		<path style="fill:#C85F64;" d="M135.733,134.941c-0.018-0.056-0.036-0.112-0.054-0.169c-0.03-0.093-0.075-0.178-0.123-0.263
			c-0.065-0.115-0.178-0.185-0.281-0.263c-0.064-0.037-0.134-0.056-0.208-0.056c-0.075,0-0.144,0.019-0.208,0.056
			c-0.123,0.072-0.208,0.212-0.204,0.356c0.001,0.029,0.002,0.058,0.003,0.086c0,0.012,0,0.025,0.001,0.037
			c0.005,0.046,0.011,0.093,0.018,0.139c0.016,0.038,0.032,0.076,0.048,0.114c0.026,0.056,0.051,0.115,0.089,0.165
			c0.037,0.048,0.073,0.097,0.11,0.145c0.037,0.049,0.072,0.106,0.115,0.147c0.051,0.05,0.093,0.07,0.151,0.098
			c0.059,0.034,0.123,0.052,0.191,0.052c0.052,0.002,0.101-0.009,0.146-0.033c0.099-0.042,0.201-0.133,0.219-0.246
			c0.009-0.056,0.025-0.122,0.025-0.175C135.771,135.062,135.753,135.005,135.733,134.941z"/>
		<path style="fill:#C85F64;" d="M155.115,136.225c-0.033-0.053-0.078-0.102-0.132-0.134c-0.028-0.016-0.066-0.03-0.097-0.04
			c-0.035-0.011-0.073-0.016-0.109-0.015c-0.019,0.001-0.09,0.008-0.109,0.014c-0.041,0.011-0.083,0.033-0.12,0.055
			c-0.019,0.011-0.039,0.023-0.058,0.033c-0.053,0.029-0.098,0.069-0.142,0.111c-0.035,0.034-0.07,0.067-0.107,0.099
			c-0.021,0.019-0.043,0.037-0.065,0.055c-0.02,0.017-0.037,0.038-0.055,0.058c-0.018,0.02-0.036,0.039-0.054,0.058
			c-0.005,0.005-0.009,0.009-0.014,0.014c-0.021,0.028-0.043,0.056-0.064,0.084c-0.009,0.019-0.017,0.038-0.025,0.057
			c-0.013,0.03-0.021,0.05-0.028,0.079c-0.018,0.068-0.018,0.136,0,0.203c0.012,0.05,0.035,0.093,0.068,0.13
			c0.027,0.042,0.063,0.074,0.107,0.098c0.06,0.035,0.124,0.052,0.193,0.052c0.089,0.007,0.17-0.016,0.249-0.055
			c0.024-0.012,0.047-0.025,0.07-0.038c0.072-0.04,0.137-0.089,0.199-0.144c0.096-0.086,0.203-0.179,0.26-0.295
			c0.01-0.021,0.02-0.041,0.03-0.062c0.008-0.019,0.016-0.037,0.024-0.056c0.007-0.016,0.013-0.032,0.02-0.048
			c0.017-0.053,0.019-0.106,0.007-0.159C155.156,136.318,155.153,136.285,155.115,136.225z"/>
		<g>
			<path style="fill:#C85F64;" d="M155.942,137.482c-0.036-0.064-0.096-0.125-0.159-0.162c-0.083-0.049-0.178-0.063-0.273-0.051
				c-0.026,0.003-0.051,0.007-0.077,0.011c-0.018,0.003-0.036,0.007-0.054,0.01c-0.072,0.014-0.139,0.038-0.204,0.074
				c-0.066,0.037-0.13,0.077-0.191,0.122c-0.069,0.05-0.141,0.097-0.186,0.172c-0.024,0.041-0.054,0.097-0.063,0.141
				c-0.021,0.106,0.013,0.23,0.115,0.284c0.065,0.034,0.167,0.065,0.24,0.063c0.049-0.002,0.099-0.009,0.148-0.01
				c0.049-0.001,0.097-0.001,0.145,0.001c0.065,0.003,0.13-0.013,0.195-0.024c0.054,0,0.105-0.009,0.152-0.034
				c0.07-0.03,0.124-0.071,0.171-0.132c0.041-0.053,0.032-0.039,0.058-0.101C156.011,137.729,156.006,137.596,155.942,137.482z"/>
			<path style="fill:#C85F64;" d="M155.554,138.118c0.005-0.001,0.009-0.001,0.014-0.002c0.002,0,0.003-0.001,0.005-0.001
				c-0.015,0.002-0.031,0.004-0.046,0.006C155.536,138.12,155.545,138.119,155.554,138.118z"/>
			<path style="fill:#C85F64;" d="M155.64,138.106c-0.02,0.003-0.04,0.004-0.059,0.007c-0.003,0-0.005,0.002-0.008,0.002
				C155.595,138.112,155.617,138.109,155.64,138.106z"/>
		</g>
		<path style="fill:#6779B7;" d="M152.681,228.661c-1.054,0.439-2.005,1.136-2.997,1.698c-1.034,0.585-2.106,1.113-3.198,1.58
			c-2.174,0.93-4.471,1.587-6.804,1.967c-4.718,0.769-9.61,0.302-14.125-1.253c-2.581-0.889-4.887-2.186-7.257-3.513
			c-0.205-0.115-0.448,0.171-0.259,0.336c1.795,1.565,4.013,2.704,6.206,3.604c2.297,0.943,4.724,1.576,7.183,1.914
			c4.879,0.672,9.902,0.079,14.511-1.65c1.291-0.484,2.548-1.053,3.755-1.718c1.154-0.637,2.472-1.35,3.332-2.371
			C153.227,229.017,153.044,228.51,152.681,228.661z"/>
		<path style="fill:#6779B7;" d="M152.459,223.911c-0.93,0.641-1.839,1.327-2.816,1.896c-0.485,0.283-0.991,0.526-1.502,0.757
			c-0.251,0.113-0.508,0.21-0.763,0.312c-0.127,0.051-0.258,0.099-0.383,0.156c-0.133,0.061-0.186,0.157-0.296,0.23
			c-0.112,0.075-0.062,0.229,0.066,0.242c0.139,0.014,0.219,0.073,0.373,0.057c0.136-0.014,0.275-0.042,0.408-0.071
			c0.281-0.062,0.559-0.148,0.833-0.237c0.581-0.189,1.143-0.444,1.683-0.729c0.529-0.279,1.039-0.599,1.504-0.975
			c0.481-0.39,0.865-0.805,1.223-1.309C152.926,224.046,152.653,223.777,152.459,223.911z"/>
	</g>
	<g>
		<path style="fill:#D3723F;" d="M408.308,431.767H212.943c-6.172,0-10.907-5.477-10.016-11.584l22.412-153.484
			c0.544-3.727,3.741-6.491,7.508-6.491h125.411l11.431-14.264c2.385-2.976,5.992-4.708,9.805-4.708l58.06-0.005
			c4.627-0.001,8.177,4.105,7.508,8.684l-25.08,171.76C419.136,427.469,414.165,431.767,408.308,431.767z"/>
		<path style="fill:#EBAB6F;" d="M210.045,431.767h199.194c4.922,0,8.73-4.314,8.119-9.197l-17.492-139.89
			c-0.518-4.145-4.042-7.255-8.219-7.255H191.069c-4.982,0-8.837,4.367-8.219,9.31l17.292,138.29
			C200.767,428.019,205.012,431.767,210.045,431.767z"/>
		<path style="fill:#2E344B;" d="M275.765,340.998c-0.032-0.032-0.063-0.064-0.083-0.081c-0.384-0.325-0.778-0.639-1.17-0.954
			c-0.698-0.561-1.396-1.122-2.094-1.684c-0.732-0.589-1.464-1.177-2.195-1.765c0.227-0.297,0.452-0.585,0.738-0.947
			c0.693-0.876,1.397-1.74,2.058-2.641c0.641-0.875,1.273-1.627,1.568-2.692c0.413-1.491-1.018-2.971-2.528-2.528
			c-1.969,0.578-3.662,2.437-5.094,3.864c-0.427,0.426-0.841,0.862-1.26,1.295c-0.814-0.653-1.637-1.292-2.489-1.89
			c-1.533-1.074-3.406-3.163-5.422-2.981c-1.287,0.116-2.548,1.043-2.48,2.48c0.111,2.38,2.476,3.966,3.983,5.58
			c0.622,0.666,1.277,1.303,1.943,1.93c-0.766,0.956-1.514,1.926-2.21,2.926c-1.26,1.812-2.982,3.895-3.05,6.179
			c-0.066,2.212,2.368,3.292,4.162,2.389c1.095-0.551,1.82-1.629,2.51-2.607c0.576-0.817,1.148-1.636,1.739-2.442
			c0.509-0.694,1.006-1.395,1.505-2.096c0.749,0.703,1.497,1.406,2.246,2.109c0.73,0.686,1.452,1.383,2.203,2.047
			c0.512,0.452,1.029,0.958,1.61,1.316c1.067,0.658,2.239,0.669,3.431,0.454c1.674-0.302,2.782-2.128,2.824-3.709
			c0.001-0.031,0.002-0.061,0.002-0.091C278.256,342.837,277.174,341.548,275.765,340.998z"/>
		<path style="fill:#2E344B;" d="M329.124,338.574c-0.032-0.032-0.063-0.064-0.083-0.081c-0.384-0.325-0.778-0.639-1.17-0.955
			c-0.698-0.561-1.396-1.122-2.094-1.684c-0.732-0.589-1.464-1.177-2.195-1.765c0.227-0.297,0.452-0.585,0.738-0.947
			c0.693-0.876,1.397-1.74,2.058-2.641c0.641-0.875,1.273-1.627,1.568-2.692c0.413-1.491-1.018-2.971-2.528-2.528
			c-1.969,0.578-3.662,2.437-5.094,3.864c-0.427,0.426-0.841,0.862-1.26,1.295c-0.814-0.653-1.637-1.292-2.489-1.89
			c-1.533-1.074-3.406-3.163-5.422-2.981c-1.287,0.116-2.547,1.043-2.48,2.48c0.111,2.38,2.476,3.966,3.983,5.58
			c0.622,0.666,1.277,1.303,1.943,1.93c-0.766,0.956-1.514,1.926-2.21,2.926c-1.26,1.812-2.982,3.895-3.05,6.179
			c-0.066,2.212,2.368,3.292,4.162,2.388c1.095-0.551,1.82-1.629,2.51-2.607c0.576-0.817,1.148-1.636,1.739-2.442
			c0.509-0.694,1.006-1.395,1.505-2.096c0.749,0.703,1.497,1.406,2.246,2.109c0.73,0.686,1.452,1.383,2.203,2.047
			c0.512,0.453,1.029,0.958,1.61,1.316c1.067,0.658,2.239,0.669,3.431,0.454c1.674-0.302,2.782-2.128,2.824-3.71
			c0.001-0.03,0.002-0.061,0.003-0.091C331.615,340.413,330.533,339.125,329.124,338.574z"/>
		<path style="fill:#2E344B;" d="M308.656,357.544c-1.926-0.916-3.935-1.661-5.977-2.27c-3.839-1.145-7.97-1.858-11.981-1.478
			c-3.423,0.324-6.876,1.316-9.687,3.362c-1.471,1.07-2.744,2.275-3.843,3.725c-0.951,1.256-1.845,2.992-1.651,4.601
			c0.137,1.132,1.309,2.156,2.454,1.408c1.116-0.729,1.97-1.789,2.925-2.718c0.888-0.863,1.882-1.52,2.996-2.087
			c1.135-0.579,2.048-0.937,3.409-1.285c1.631-0.417,2.275-0.509,3.82-0.542c3.262-0.07,6.326,0.657,9.475,1.767
			c1.612,0.568,3.192,1.23,4.776,1.872c0.042,0.017,0.065,0.027,0.094,0.038c0.432,0.186,0.69,0.296,0.776,0.331
			c0.029,0.013,0.048,0.022,0.081,0.037c0.324,0.161,0.658,0.298,1.001,0.409c0.794,0.276,1.526,0.434,2.375,0.493
			c1.477,0.103,2.617-1.307,2.668-2.668C312.454,360.2,310.615,358.476,308.656,357.544z"/>
		<path style="fill:#FFFFFF;" d="M399.286,261.94c-0.1-0.358-0.282-0.669-0.544-0.933c-0.264-0.262-0.575-0.443-0.933-0.544
			c-0.667-0.184-1.599-0.026-2.058,0.544c-0.134,0.166-0.265,0.335-0.393,0.506c-0.073,0.173-0.146,0.345-0.219,0.518
			c-0.041,0.096-0.094,0.195-0.124,0.295c-0.107,0.349-0.102,0.758-0.142,1.125c-0.046,0.424-0.097,0.838-0.084,1.265
			c0.016,0.556,0.004,1.12,0.108,1.669c0.045,0.237,0.095,0.461,0.189,0.684c0.131,0.31,0.338,0.554,0.561,0.801
			c0.389,0.431,1.126,0.499,1.612,0.208c0.221-0.133,0.444-0.272,0.63-0.453c0.207-0.201,0.38-0.518,0.51-0.782
			c0.236-0.479,0.383-1.005,0.553-1.51c0.131-0.39,0.208-0.779,0.285-1.183C399.373,263.44,399.568,262.64,399.286,261.94z"/>
		<path style="fill:#FFFFFF;" d="M412.24,262.454c-0.202-0.661-0.773-1.389-1.505-1.505c-0.356-0.056-0.628-0.097-0.974-0.051
			c-0.534,0.072-0.888,0.288-1.31,0.627c-0.173,0.139-0.35,0.279-0.506,0.437c-0.328,0.33-0.602,0.734-0.887,1.101
			c-0.67,0.861-1.293,1.74-1.886,2.655c-0.241,0.372-0.48,0.746-0.713,1.123c-0.304,0.493-0.502,1.06-0.726,1.592
			c-0.175,0.417-0.364,0.818-0.436,1.266c-0.074,0.46-0.132,0.911,0.118,1.336c0.246,0.417,0.616,0.628,1.094,0.667
			c1.033,0.084,1.896-1.007,2.576-1.643c0.63-0.588,1.159-1.257,1.727-1.905c0.553-0.63,1.115-1.25,1.665-1.882
			C411.394,265.223,412.713,264.003,412.24,262.454z"/>
		<path style="fill:#FFFFFF;" d="M414.029,276.739c-0.372-0.328-0.727-0.611-1.213-0.758c-0.38-0.115-0.773-0.167-1.17-0.168
			c-0.612-0.001-1.215,0.084-1.811,0.218c-0.448,0.101-0.891,0.228-1.324,0.381c-0.328,0.116-0.67,0.224-0.955,0.426
			c-0.302,0.212-0.541,0.431-0.782,0.702c-0.336,0.377-0.496,0.855-0.358,1.356c0.12,0.437,0.508,0.888,0.973,0.973
			c0.164,0.03,0.326,0.068,0.49,0.094c0.209,0.033,0.424,0.067,0.637,0.076c0.08,0.003,0.158-0.007,0.237-0.015
			c-0.015,0.002-0.03,0.004-0.046,0.006c0.045-0.006,0.091-0.007,0.136-0.012c0.003,0,0.006,0,0.009-0.001
			c0.664-0.08,1.333-0.111,2.002-0.078c0.357,0.018,0.731,0.02,1.088,0.001c0.297-0.016,0.626-0.069,0.92-0.14
			c0.298-0.072,0.562-0.247,0.824-0.398C414.583,278.881,414.854,277.466,414.029,276.739z"/>
	</g>
	<g>
		<g>
			<g>
				<polygon style="fill:#FFFFFF;" points="313.401,101.442 289.309,120.249 280.139,218.917 370.18,218.917 381.098,101.442 				
					"/>
				<polygon style="fill:#6779B7;" points="311.653,120.249 313.401,101.442 289.309,120.249 				"/>
			</g>
			<path style="fill:#EF877B;" d="M342.574,149.873c1.241-1.483,2.692-2.996,3.173-4.926c0.397-1.592-0.99-2.804-2.512-2.512
				c-1.786,0.344-3.261,1.597-4.664,2.672c-1.539,1.179-3.005,2.441-4.465,3.715c-2.05,1.79-4.02,3.699-5.967,5.616
				c-0.995-1.431-1.983-2.866-2.977-4.296c-0.996-1.434-1.979-2.872-3.038-4.261c-1.116-1.465-2.243-3.141-3.848-4.105
				c-1.402-0.842-3.753,0.213-3.542,2.032c0.411,3.549,2.949,6.957,4.745,9.965c1.155,1.936,2.352,3.843,3.572,5.736
				c-1.436,1.454-2.865,2.915-4.29,4.38c-2.572,2.645-6.063,5.424-7.311,8.98c-0.738,2.102,1.682,4.798,3.877,3.877
				c3.536-1.484,6.052-4.917,8.67-7.622c1.089-1.125,2.193-2.235,3.291-3.35c1.341,1.896,2.704,3.777,4.114,5.622
				c1.126,1.474,2.265,2.939,3.427,4.385c0.579,0.721,1.134,1.506,1.811,2.138c1.242,1.159,2.484,1.399,4.126,1.123
				c1.177-0.198,2.017-1.321,2.368-2.368c0.828-2.467-1.037-4.263-2.508-5.973c-1.107-1.286-2.196-2.586-3.268-3.901
				c-1.679-2.06-3.294-4.169-4.875-6.304c2.209-2.223,4.446-4.43,6.573-6.725C340.247,152.489,341.451,151.215,342.574,149.873z"/>
		</g>
		<g>
			<g>
				<polygon style="fill:#FFFFFF;" points="306.367,90.187 282.274,108.994 273.104,207.662 363.145,207.662 374.063,90.187 				"/>
				<polygon style="fill:#8EADD5;" points="304.619,108.994 306.367,90.187 282.274,108.994 				"/>
			</g>
			<path style="fill:#C85F64;" d="M335.54,138.618c1.241-1.483,2.692-2.996,3.174-4.926c0.397-1.592-0.99-2.805-2.512-2.512
				c-1.786,0.343-3.261,1.597-4.664,2.672c-1.539,1.179-3.005,2.441-4.465,3.715c-2.05,1.79-4.02,3.699-5.967,5.616
				c-0.995-1.431-1.983-2.866-2.977-4.296c-0.996-1.434-1.979-2.872-3.038-4.261c-1.116-1.465-2.243-3.141-3.848-4.105
				c-1.402-0.842-3.753,0.213-3.542,2.032c0.411,3.549,2.949,6.957,4.745,9.965c1.155,1.936,2.352,3.843,3.572,5.736
				c-1.436,1.454-2.865,2.915-4.29,4.379c-2.572,2.645-6.063,5.425-7.311,8.98c-0.738,2.102,1.682,4.798,3.877,3.877
				c3.536-1.484,6.052-4.917,8.67-7.622c1.089-1.125,2.193-2.235,3.291-3.351c1.341,1.896,2.704,3.777,4.114,5.623
				c1.126,1.474,2.265,2.939,3.427,4.385c0.579,0.721,1.134,1.506,1.811,2.138c1.242,1.159,2.484,1.399,4.126,1.123
				c1.177-0.198,2.017-1.321,2.368-2.368c0.828-2.467-1.037-4.263-2.508-5.973c-1.107-1.286-2.196-2.586-3.268-3.901
				c-1.679-2.06-3.294-4.169-4.875-6.304c2.209-2.223,4.446-4.43,6.573-6.725C333.213,141.234,334.417,139.96,335.54,138.618z"/>
		</g>
		<polygon style="fill:#2E344B;" points="281.185,207.662 365.255,210.827 373.017,101.442 363.145,207.662 		"/>
		<path style="fill:#FFFFFF;" d="M288.166,89.171c-0.413-0.467-0.81-0.944-1.265-1.371c-0.443-0.415-0.871-0.841-1.347-1.218
			c-0.252-0.199-0.501-0.401-0.753-0.6c-0.179-0.141-0.333-0.266-0.543-0.355c-0.045-0.019-0.09-0.038-0.135-0.057
			c-0.132-0.056-0.265-0.112-0.397-0.169c-0.475-0.203-0.943-0.239-1.378,0.097c-0.368,0.284-0.613,0.84-0.445,1.304
			c0.125,0.345,0.231,0.782,0.431,1.083c0.162,0.245,0.352,0.476,0.528,0.712c0.454,0.607,0.944,1.158,1.462,1.708
			c0.429,0.456,0.906,0.847,1.388,1.247c0.312,0.259,0.619,0.549,0.971,0.751c0.429,0.245,0.893,0.522,1.403,0.458
			c0.343-0.043,0.675-0.112,0.922-0.382c0.244-0.266,0.354-0.561,0.382-0.922C289.457,90.583,288.704,89.78,288.166,89.171z"/>
		<path style="fill:#FFFFFF;" d="M286.204,97.546c-0.205-0.318-0.472-0.522-0.783-0.706c-0.388-0.339-0.992-0.469-1.473-0.511
			c-0.376-0.033-0.761-0.049-1.138-0.044c-0.469,0.006-0.957,0.114-1.419,0.202c-0.535,0.102-1.019,0.241-1.39,0.677
			c-0.509,0.6-0.456,1.46,0.245,1.897c0.295,0.184,0.615,0.305,0.968,0.312c0.188,0.003,0.377-0.015,0.565-0.022
			c0.36-0.013,0.726,0.011,1.083-0.035c0.76-0.098,1.83-0.047,2.479-0.544c0.006-0.003,0.007-0.003,0.014-0.006
			c0.15-0.063,0.285-0.116,0.413-0.216c0.12-0.093,0.245-0.191,0.347-0.303C286.28,98.061,286.346,97.767,286.204,97.546z"/>
		<path style="fill:#FFFFFF;" d="M295.606,84.376c-0.002-0.253,0.006-0.511-0.007-0.764c-0.021-0.427-0.157-0.711-0.389-1.046
			c-0.292-0.422-0.785-0.573-1.254-0.329c-0.333,0.173-0.623,0.373-0.812,0.71c-0.17,0.304-0.292,0.658-0.419,0.98
			c-0.212,0.533-0.246,1.16-0.322,1.726c-0.08,0.594-0.13,1.157-0.091,1.756c0.044,0.681,0.051,1.441,0.447,2.027
			c0.493,0.73,1.533,0.775,2.017,0c0.222-0.356,0.317-0.78,0.368-1.189c0.014-0.109,0.024-0.22,0.04-0.329
			c0.008-0.047,0.015-0.095,0.019-0.118c0.096-0.629,0.169-1.252,0.229-1.884c0.023-0.246,0.046-0.496,0.083-0.741
			c0.007-0.045,0.014-0.087,0.017-0.103C295.567,84.84,295.608,84.611,295.606,84.376z"/>
	</g>
	<g>
		<ellipse style="fill:#FFFFFF;" cx="209.338" cy="108.783" rx="33.249" ry="29.014"/>
		<path style="fill:#FFFFFF;" d="M183.419,122.745c0,0-4.667,6.193-9.672,9.236c-0.881,0.536-0.634,1.87,0.377,2.072
			c4.195,0.839,12.038,1.672,19.822-1.408L183.419,122.745z"/>
	</g>
	<g>
		<path style="fill:#FFFFFF;" d="M414.336,79.529l5.209,1.689l-5.209,1.689c-2.124,0.689-3.788,2.353-4.477,4.477l-1.689,5.209
			l-1.689-5.209c-0.689-2.124-2.353-3.788-4.477-4.477l-5.209-1.689l5.209-1.689c2.124-0.689,3.788-2.353,4.477-4.477l1.689-5.209
			l1.689,5.209C410.547,77.175,412.212,78.84,414.336,79.529z"/>
		<path style="fill:#FFFFFF;" d="M73.044,369.561l5.209,1.689l-5.209,1.689c-2.123,0.689-3.788,2.353-4.477,4.477l-1.689,5.209
			l-1.689-5.209c-0.689-2.124-2.353-3.788-4.477-4.477l-5.209-1.689l5.209-1.689c2.124-0.689,3.788-2.353,4.477-4.477l1.689-5.209
			l1.689,5.209C69.255,367.208,70.92,368.873,73.044,369.561z"/>
		<path style="fill:#FFFFFF;" d="M264.427,233.209l4.273,1.386l-4.273,1.386c-1.742,0.565-3.108,1.93-3.672,3.673l-1.386,4.273
			l-1.386-4.273c-0.565-1.742-1.93-3.108-3.672-3.673l-4.273-1.386l4.273-1.386c1.742-0.565,3.108-1.93,3.672-3.673l1.386-4.273
			l1.386,4.273C261.32,231.278,262.685,232.644,264.427,233.209z"/>
		<path style="fill:#FFFFFF;" d="M454.065,381.119l4.273,1.386l-4.273,1.386c-1.742,0.565-3.108,1.931-3.672,3.672l-1.386,4.273
			l-1.386-4.273c-0.565-1.742-1.93-3.108-3.672-3.672l-4.273-1.386l4.273-1.386c1.742-0.565,3.108-1.93,3.672-3.672l1.386-4.273
			l1.386,4.273C450.958,379.189,452.323,380.555,454.065,381.119z"/>
		<path style="fill:#FFFFFF;" d="M432.907,94.746l2.343,0.76l-2.343,0.76c-0.955,0.31-1.704,1.059-2.014,2.014l-0.76,2.343
			l-0.76-2.343c-0.31-0.955-1.059-1.704-2.014-2.014l-2.343-0.76l2.343-0.76c0.955-0.31,1.704-1.059,2.014-2.014l0.76-2.343
			l0.76,2.343C431.203,93.687,431.951,94.436,432.907,94.746z"/>
		<path style="fill:#FFFFFF;" d="M120.652,83.194l2.343,0.76l-2.343,0.76c-0.955,0.31-1.704,1.059-2.014,2.014l-0.76,2.343
			l-0.76-2.343c-0.31-0.955-1.059-1.704-2.014-2.014l-2.343-0.76l2.343-0.76c0.955-0.31,1.704-1.059,2.014-2.014l0.76-2.343
			l0.76,2.343C118.948,82.135,119.697,82.884,120.652,83.194z"/>
	</g>
	<g>
		<g>
			<g>
				<path style="fill:none;stroke:#FFFFFF;stroke-linecap:round;stroke-linejoin:round;" d="M335.42,268.504
					c-0.308-0.595-0.584-1.204-0.827-1.824"/>
				<path style="fill:none;stroke:#FFFFFF;stroke-linecap:round;stroke-linejoin:round;stroke-dasharray:3.9639,3.9639;" d="
					M333.516,262.87c-1.372-7.589,1.41-15.971,7.448-20.854c7.124-5.76,16.981-6.358,26.134-6.726
					c9.415-0.379,18.886-0.787,28.085-2.828c6.176-1.37,12.331-3.551,17.188-7.603c4.857-4.052,8.251-10.238,7.722-16.541
					c-0.528-6.304-5.682-12.272-12.001-12.563c-6.319-0.291-12.309,6.366-10.401,12.397c1.101,3.48,4.382,5.998,7.939,6.813
					c3.557,0.815,7.327,0.116,10.696-1.286c7.267-3.023,13.047-9.42,15.32-16.956c1.287-4.269,1.487-8.8,1.214-13.25
					c-0.328-5.349-1.371-10.776-4.097-15.39c-3.589-6.074-9.84-10.232-16.513-12.522c-5.422-1.86-11.144-2.6-16.88-2.967"/>
				<path style="fill:none;stroke:#FFFFFF;stroke-linecap:round;stroke-linejoin:round;" d="M393.404,152.482
					c-0.667-0.034-1.334-0.064-2-0.091"/>
			</g>
		</g>
		<path style="fill:none;stroke:#FFFFFF;stroke-linecap:round;stroke-linejoin:round;stroke-miterlimit:10;stroke-dasharray:4;" d="
			M256.696,267.197c-15.367,4.36-32.684,2.028-45.876-6.978c-13.192-9.006-21.769-24.727-21.351-40.695
			c0.418-15.968,10.197-31.545,24.754-38.12c5.525-2.496,12.052-3.69,17.613-1.275c5.561,2.415,9.332,9.363,6.728,14.838
			c-2.599,5.464-10.54,6.886-15.634,3.621c-5.094-3.265-7.294-9.897-6.591-15.906c0.703-6.01,3.855-11.467,7.537-16.268
			c11.181-14.581,28.039-24.689,46.169-27.681"/>
	</g>
</g>
<g id="TEXT">
	<text transform="matrix(1 0 0 1 197.6206 126.2881)" style="fill:#2E344B; font-family:'Quicksand-Bold'; font-size:47.0881px;">?</text>
</g>
</svg>
