<?xml version="1.0" encoding="UTF-8"?>
<svg xmlns="http://www.w3.org/2000/svg" version="1.1" viewBox="0 0 1000 1000">
  <!-- Generator: Adobe Illustrator 28.7.7, SVG Export Plug-In . SVG Version: 1.2.0 Build 194)  -->
  <g>
    <g id="Layer_1">
      <g>
        <g>
          <rect x="541.081" y="792.523" width="239.649" height="23.867" style="fill: #808184;"/>
          <g>
            <polygon points="822.288 668.098 767.673 899.338 749.794 899.338 804.408 668.098 822.288 668.098" style="fill: #808184;"/>
            <polygon points="815.936 667.963 870.55 899.202 888.43 899.202 833.816 667.963 815.936 667.963" style="fill: #808184;"/>
            <path d="M767.675,899.924c-.045,0-.09-.005-.136-.016-.314-.074-.509-.39-.434-.704l54.614-231.24c.074-.314.389-.505.704-.434.314.074.509.389.434.704l-54.614,231.24c-.063.269-.303.45-.569.45Z" style="fill: #020202;"/>
          </g>
          <path d="M856.62,610.376v49.603c0,4.459-3.652,8.112-8.154,8.112h-372.617c-4.502,0-8.154-3.653-8.154-8.112v-49.603c0-4.502,3.653-8.154,8.154-8.154h372.617c4.502,0,8.154,3.652,8.154,8.154Z" style="fill: #fda906;"/>
          <g>
            <polygon points="508.385 668.098 453.771 899.338 435.891 899.338 490.505 668.098 508.385 668.098" style="fill: #808184;"/>
            <polygon points="502.033 667.963 556.647 899.202 574.527 899.202 519.913 667.963 502.033 667.963" style="fill: #808184;"/>
          </g>
          <g>
            <polygon points="525.511 602.222 561.161 667.963 529.48 667.963 493.83 602.222 525.511 602.222" style="fill: #020202;"/>
            <polygon points="592.842 602.222 628.492 667.963 596.811 667.963 561.161 602.222 592.842 602.222" style="fill: #020202;"/>
            <polygon points="660.173 602.222 695.823 667.963 664.142 667.963 628.492 602.222 660.173 602.222" style="fill: #020202;"/>
            <polygon points="727.504 602.222 763.154 667.963 731.473 667.963 695.823 602.222 727.504 602.222" style="fill: #020202;"/>
            <polygon points="794.835 602.222 830.485 667.963 798.804 667.963 763.154 602.222 794.835 602.222" style="fill: #020202;"/>
          </g>
        </g>
        <g>
          <path d="M325.05,875.138v19.304c0,2.712-2.202,4.896-4.896,4.896H119.578c-2.918,0-5.284-2.366-5.284-5.284v-18.916c0-2.918,2.366-5.284,5.284-5.284h200.188c2.906,0,5.284,2.378,5.284,5.284Z" style="fill: #fda906;"/>
          <path d="M305.711,869.854h-172.078l10.832-26.543,10.814-26.543,10.832-26.543,10.832-26.56,10.814-26.543,10.832-26.542,9.035-22.175c1.074-2.642,3.646-4.368,6.499-4.368h11.096c2.853,0,5.425,1.726,6.499,4.368l9.035,22.175,10.832,26.542,10.814,26.543,10.832,26.56,10.832,26.543,10.814,26.543,10.832,26.543Z" style="fill: #fda906;"/>
          <path d="M319.766,870.44H119.578c-.323,0-.585-.262-.585-.585s.262-.585.585-.585h200.188c.323,0,.585.262.585.585s-.262.585-.585.585Z" style="fill: #020202;"/>
          <polygon points="251.586 737.123 187.757 737.123 198.589 710.581 240.754 710.581 251.586 737.123" style="fill: #dbeaff;"/>
          <polygon points="273.233 790.226 166.111 790.226 176.943 763.666 262.401 763.666 273.233 790.226" style="fill: #dbeaff;"/>
          <polygon points="294.879 843.311 144.465 843.311 155.279 816.768 284.065 816.768 294.879 843.311" style="fill: #dbeaff;"/>
        </g>
        <path d="M899.63,899.924H100.37c-.323,0-.585-.262-.585-.585s.262-.585.585-.585h799.261c.323,0,.585.262.585.585s-.262.585-.585.585Z" style="fill: #020202;"/>
        <g>
          <g>
            <polygon points="615.936 845.341 535.197 850.322 531.044 786.935 606.237 787.541 615.936 845.341" style="fill: #ffa07f;"/>
            <polygon points="471.906 786.073 464.436 849.769 374.528 844.788 384.227 786.988 471.906 786.073" style="fill: #ffa07f;"/>
            <polygon points="627.773 791.999 578.232 310.081 459.489 310.081 498.767 575.088 517.681 791.999 627.773 791.999" style="fill: #ff4702;"/>
            <polygon points="476.658 791.999 495.237 575.269 491.894 310.081 413.093 310.081 387.565 580.79 366.893 791.999 476.658 791.999" style="fill: #ff4702;"/>
            <path d="M528.697,126.526c-2.69,4.43-8.728,8.776-15.341,13.108l-9.961-10.354,13.631-3.801,11.671,1.047Z" style="fill: #010101;"/>
            <path d="M570.499,215.323h2.996c29.809,14.987,54.057,33.008,71.186,54.915l1.049,33.552-97.249,2.621,22.018-91.089Z" style="fill: #dbeaff;"/>
            <path d="M407.064,213.226l-4.322-.916c-32.082,17.66-50.576,43.889-63.044,73.918v48.886s82.176.786,82.176.786l-14.81-122.675Z" style="fill: #dbeaff;"/>
            <path d="M573.712,217.518v89.714h-29.493v-100.886h18.316c6.173,0,11.177,5.004,11.177,11.173Z" style="fill: #ff4702;"/>
            <path d="M430.786,206.182v153.179h-29.358v-141.73c0-6.323,5.126-11.449,11.449-11.449h17.908Z" style="fill: #ff4702;"/>
            <polygon points="517.222 206.345 555.492 206.345 556.41 320.894 418.597 319.125 419.678 206.345 460.079 205.755 517.222 206.345" style="fill: #dbeaff;"/>
            <path d="M466.239,178.953l-.754,1.573c2.306,10.275-1.124,17.946-5.406,25.23,6.874,11.579,16.67,17.641,29.686,17.628,11.607-.012,20.401-6.519,27.458-17.038l-3.472-7.394-47.511-19.998Z" style="fill: #ffa07f;"/>
            <path d="M513.75,198.951l-37.867-6.859c9.709,13.728,23.489,18.479,41.339,14.253l-3.472-7.394Z" style="fill: #020202;"/>
            <path d="M748.7,546.188l-495.091,25.386c-6.925.355-12.814-4.996-13.123-11.922l-11.439-258.557c-.307-6.878,5.008-12.709,11.885-13.038l493.532-23.646c6.88-.33,12.729,4.971,13.078,11.85l12.998,256.817c.349,6.889-4.951,12.758-11.84,13.111Z" style="fill: #5395f7;"/>
            <path d="M264.883,547.157c-.29,0-.572-.108-.787-.304-.231-.21-.368-.503-.382-.815l-10.334-233.576c-.029-.644.469-1.191,1.114-1.221l468.675-22.455c.65-.026,1.194.466,1.226,1.11l11.738,231.928c.033.646-.464,1.196-1.109,1.229l-470.081,24.104c-.021,0-.04.002-.06.002ZM255.77,313.524l10.23,231.233,467.735-23.984-11.62-229.593-466.345,22.343Z" style="fill: #fff;"/>
            <path d="M450.101,165.879l-.344,2.998c.046,8.858,8.159,16.301,15.727,11.648,12.254,16.014,26.134,26.405,44.901,19.89,2.584-.897,5.022-2.209,7.08-4.01,7.401-6.479,7.787-16.038,5.579-28.085-.346-1.887-.787-3.758-1.313-5.603l-5.9-20.689c-1.269-4.451-3.473-8.605-6.597-12.019-.206-.225-.415-.447-.628-.666l-25.073,1.378-30.794,14.876-2.638,20.282Z" style="fill: #ffa07f;"/>
            <path d="M749.28,310.612l.716,14.152-27.661,1.34c-13.368,1.769-14.843,21.625-2.687,26.311-10.878,6.029-8.292,21.855.918,26.213-9.928,6.553-9.209,20.315,1.442,25.819-9.895,6.389-8.814,23.788,5.898,26.475l27.403-1.193v6.829l18.068-8.733c11.746-.212,21.109-16.398,6.43-26.523,9.961-5.21,10.55-19.266-1.311-25.95,8.841-5.898,10.878-19.07-.786-25.819,11.173-9.666,8.501-21.413-5.112-26.475l-23.318-12.445Z" style="fill: #ffa07f;"/>
            <path d="M230.571,335.243l-20.614,11.678c-13.352,7.753-11.938,20.172-1.191,26.726-11.082,6.925-10.157,19.299,0,25.95-9.591,8.532-8.442,19.889,1.54,26.441-10.606,7.898-5.849,20.911,5.207,24.837,1.097.389,2.179.818,3.215,1.348l17.46,8.926-.469-10.51,26.202-1.195c8.115-.37,14.449-7.506,13.427-15.564-.551-4.348-3.144-8.549-8.079-11.052,8.906-6.064,12.008-18.644-.688-26.245,9.875-5.268,9.944-21.56-1.573-25.999,12.959-7.684,6.799-27.54-7.667-26.147l-26.303,1.28-.467-10.473Z" style="fill: #ffa07f;"/>
            <path d="M445.383,154.919l-.511,1.816,4.886,12.143c3.164-7.709,8.747-11.069,18.038-7.765,1.812-4.158,5.211-7.371,9.633-9.977l-1.979-12.496-2.788.357-19.463,9.731-7.815,6.193Z" style="fill: #020202;"/>
            <path d="M480.918,157.196c.709-4.166,3.345-7.139,8.381-8.626.357-.105.729-.177,1.101-.179,2.326-.01,3.242,2.041,1.56,2.972-3.52,1.429-7.216,3.426-11.042,5.832Z" style="fill: #020202;"/>
            <path d="M516.801,145.432c-4.236-1.836-7.959-1.202-11.473.437-.492.23-.925.589-1.202,1.056-.957,1.615.364,3.171,2.021,2.637,3.8-1.559,7.748-1.625,11.879.163l-1.191-4.177" style="fill: #020202;"/>
            <path d="M490.956,164.02c-1.672.19-3.209-1.233-3.431-3.186-.227-1.949.952-3.685,2.62-3.875,1.672-.19,3.209,1.233,3.431,3.186.227,1.949-.952,3.685-2.62,3.875Z" style="fill: #020202;"/>
            <path d="M511.952,158.908c-1.673.19-3.209-1.233-3.431-3.186-.227-1.949.952-3.685,2.62-3.875,1.673-.19,3.209,1.233,3.431,3.186.227,1.949-.952,3.685-2.62,3.875Z" style="fill: #020202;"/>
            <path d="M497.924,176.802l6.818,1.655c1.37.333,2.624,1.061,3.541,2.132,1.646,1.923,2.387,4.511.515,6.826-.51.631-1.165,1.132-1.886,1.502-4.07,2.087-10.401,1.171-13.403-2.932-.212-.29-.397-.602-.559-.923-2.145-4.257-.948-8.061,2.905-8.439.693-.068,1.392.015,2.068.18Z" style="fill: #020202;"/>
            <path d="M441.992,150.185c-4.023-13.314-1.981-26.539,10.473-39.612,3.176-3.334,7.056-5.948,11.36-7.584,10.537-4.005,21.393-3.876,32.567.364,1.466.556,2.877,1.256,4.211,2.079,6.422,3.964,11.968,8.896,15.357,16.213,7.698.813,14.526,1.806,12.988,4.524-.458.809-1.345,1.28-2.273,1.326-31.625,1.59-58.17,11.042-79.921,27.914-1.368,1.061-2.837,1.989-4.42,2.687-9.882,4.354-8.999-2.846-.342-7.913Z" style="fill: #fda906;"/>
            <path d="M441.992,150.575c-.127,0-.251-.062-.326-.175-.118-.18-.069-.422.111-.541,17.839-11.754,42.767-21.374,74.096-28.593.215-.048.42.083.468.293.048.21-.082.419-.293.468-31.238,7.199-56.082,16.782-73.842,28.485-.066.043-.141.064-.215.064Z" style="fill: #020202;"/>
            <path d="M492.813,128.145c-.17,0-.327-.112-.376-.284-3.319-11.688-8.23-19.297-14.597-22.618-4.835-2.521-10.656-2.634-17.3-.338-.202.07-.427-.038-.496-.242-.07-.204.037-.425.242-.496,6.855-2.37,12.884-2.241,17.916.383,6.565,3.423,11.607,11.194,14.988,23.097.059.207-.062.423-.269.483-.036.01-.072.015-.107.015Z" style="fill: #020202;"/>
            <path d="M505.146,175.23c-.704,0-1.409-.14-2.054-.423-.741-.324-1.572-1.036-1.474-1.978.021-.214.216-.374.428-.348.214.022.37.214.348.428-.05.489.471.947,1.011,1.182,1.135.495,2.48.476,3.6-.051,1.12-.527,1.991-1.553,2.332-2.743.37-1.298.139-2.884-.652-4.463-.553-1.103-1.313-2.126-2.049-3.115-.221-.297-.442-.594-.658-.893-2.268-3.144-4.036-6.606-5.254-10.289-.068-.205.043-.425.248-.493.207-.07.425.043.493.248,1.193,3.608,2.925,6.998,5.146,10.078.214.297.433.591.651.885.756,1.016,1.538,2.067,2.121,3.232.622,1.241,1.248,3.121.704,5.027-.401,1.404-1.429,2.613-2.749,3.234-.683.322-1.437.483-2.191.483Z" style="fill: #020202;"/>
            <path d="M496.318,185.08c3.039-1.694,7.041-.474,8.29,1.343.73.982.528,1.54-.164,1.999-2.929.878-5.663.6-8.126-1.278-.662-.722-.736-1.414,0-2.064Z" style="fill: #f48667;"/>
            <path d="M749.996,325.153c-.207,0-.38-.163-.389-.372-.011-.216.156-.398.371-.408l19.718-.92c.216-.014.399.156.408.371.011.216-.156.398-.371.408l-19.718.92c-.006,0-.012,0-.018,0Z" style="fill: #020202;"/>
            <path d="M719.648,352.805c-.207,0-.38-.162-.389-.372-.011-.215.156-.398.371-.408l52.72-2.523c.203-.025.397.155.408.371.011.215-.156.398-.371.408l-52.72,2.523c-.006,0-.012,0-.018,0Z" style="fill: #020202;"/>
            <path d="M720.566,379.017c-.207,0-.379-.162-.39-.37-.011-.216.154-.399.369-.41l53.376-2.785c.217-.009.399.154.41.369.011.216-.154.399-.369.41l-53.376,2.785c-.007,0-.014,0-.021,0Z" style="fill: #020202;"/>
            <path d="M722.007,404.837c-.207,0-.38-.163-.389-.372-.011-.215.155-.398.371-.408l51.934-2.457c.203-.02.397.156.408.371.011.215-.155.398-.371.408l-51.934,2.458c-.006,0-.012,0-.018,0Z" style="fill: #020202;"/>
            <path d="M755.309,430.119c-.209,0-.382-.166-.39-.376-.008-.215.16-.396.376-.405l8.311-.314c.205-.011.396.161.405.376.008.215-.16.396-.376.405l-8.311.314h-.015Z" style="fill: #020202;"/>
            <path d="M221.544,451.626c-.208,0-.381-.164-.39-.374-.008-.216.159-.398.374-.407l14.175-.597c.241-.005.398.159.407.373.008.216-.158.398-.373.407l-14.175.597h-.017Z" style="fill: #020202;"/>
            <path d="M216.04,425.741c-.207,0-.38-.162-.39-.371-.011-.215.155-.398.37-.409l51.229-2.523c.204-.023.398.155.409.37.011.215-.155.398-.37.409l-51.229,2.523c-.006,0-.013,0-.019,0Z" style="fill: #020202;"/>
            <path d="M214.27,399.659c-.207,0-.379-.162-.39-.37-.011-.215.154-.399.37-.409l52.31-2.687c.223-.024.398.155.409.37.012.215-.154.399-.37.409l-52.31,2.687c-.007,0-.014,0-.02,0Z" style="fill: #020202;"/>
            <path d="M213.812,373.513c-.207,0-.38-.162-.39-.371-.011-.215.155-.398.37-.409l51.196-2.539c.224-.015.399.155.409.37.011.215-.155.398-.37.408l-51.196,2.539c-.006,0-.013,0-.019,0Z" style="fill: #020202;"/>
            <path d="M216.498,346.579c-.21,0-.383-.166-.39-.377-.007-.216.162-.396.377-.403l14.54-.472c.254.011.396.162.403.377.007.216-.162.396-.377.403l-14.54.472h-.013Z" style="fill: #020202;"/>
          </g>
          <g>
            <path d="M716.8,875.978l-.224,10.137-.056,2.616c.082,8.416-3.911,9.982-8.709,10.202l-173.812.37c-5.572.349-9.453-1.824-9.827-9.203l-.017-3.984-.069-14.431-.288-61.09v-2.113h67.311v-10.498c0-2.091.46-4.174,1.471-6.002,1.945-3.507,5.305-5.357,10.223-5.396h16.591c1.222,0,2.453.185,3.593.633,1.807.706,3.244,1.897,4.311,3.563.981,1.523,1.502,3.296,1.618,5.103l.757,11.729,58.728,31.225c11.862,6.17,21.612,13.562,26.462,25.928.878,2.224,1.446,4.552,1.73,6.919.168,1.42.236,2.857.207,4.294Z" style="fill: #dbeaff;"/>
            <path d="M611.885,886.7c-.306,0-.563-.237-.583-.547-1.085-16.312,3.11-29,12.468-37.712,12.447-11.589,33.444-15.428,62.405-11.412.321.045.544.34.5.66-.045.321-.342.547-.66.5-28.601-3.964-49.271-.228-61.447,11.109-9.088,8.461-13.158,20.835-12.098,36.778.021.322-.223.601-.545.623-.013,0-.027.002-.04.002Z" style="fill: #020202;"/>
            <path d="M716.8,875.978l-.224,10.137-.056,2.616c.082,8.416-3.911,9.982-8.709,10.202l-173.812.37c-5.572.349-9.453-1.824-9.827-9.203l-.017-3.984-.069-14.431h192.507c.168,1.42.236,2.857.207,4.294Z" style="fill: #ff4702;"/>
            <path d="M667.523,828.321h-43.444c-.323,0-.585-.262-.585-.585s.262-.585.585-.585h43.444c.323,0,.585.262.585.585s-.262.585-.585.585Z" style="fill: #020202;"/>
            <path d="M648.909,818.424h-41.005c-.323,0-.585-.262-.585-.585s.262-.585.585-.585h41.005c.323,0,.585.262.585.585s-.262.585-.585.585Z" style="fill: #020202;"/>
            <path d="M629.675,808.197h-38.565c-.323,0-.585-.262-.585-.585s.262-.585.585-.585h38.565c.323,0,.585.262.585.585s-.262.585-.585.585Z" style="fill: #020202;"/>
            <path d="M566.347,841.948c0,3.369-1.364,6.415-3.571,8.622-2.203,2.207-5.254,3.571-8.618,3.571h-30.36v-24.388h30.36c6.734,0,12.189,5.46,12.189,12.194Z" style="fill: #ff4702;"/>
          </g>
          <g>
            <path d="M285.993,875.978l.224,10.137.056,2.616c-.082,8.416,3.911,9.982,8.709,10.202l173.812.37c5.572.349,9.453-1.824,9.827-9.203l.017-3.984.069-14.431.288-61.09v-2.113h-67.311v-10.498c0-2.091-.46-4.174-1.471-6.002-1.945-3.507-5.305-5.357-10.223-5.396h-16.591c-1.222,0-2.453.185-3.593.633-1.807.706-3.244,1.897-4.311,3.563-.981,1.523-1.502,3.296-1.618,5.103l-.757,11.729-58.728,31.225c-11.863,6.17-21.613,13.562-26.462,25.928-.878,2.224-1.446,4.552-1.73,6.919-.168,1.42-.237,2.857-.207,4.294Z" style="fill: #dbeaff;"/>
            <path d="M390.909,886.7c-.013,0-.027,0-.04-.002-.322-.021-.566-.3-.545-.623,1.06-15.944-3.011-28.317-12.099-36.778-12.176-11.337-32.849-15.076-61.447-11.109-.313.048-.615-.179-.66-.5-.044-.32.179-.615.5-.66,28.96-4.015,49.958-.176,62.405,11.411,9.358,8.713,13.553,21.401,12.469,37.713-.021.309-.277.547-.583.547Z" style="fill: #020202;"/>
            <path d="M285.993,875.978l.224,10.137.056,2.616c-.082,8.416,3.911,9.982,8.709,10.202l173.812.37c5.572.349,9.453-1.824,9.827-9.203l.017-3.984.069-14.431h-192.507c-.168,1.42-.237,2.857-.207,4.294Z" style="fill: #ff4702;"/>
            <path d="M378.715,828.321h-43.445c-.323,0-.585-.262-.585-.585s.262-.585.585-.585h43.445c.323,0,.585.262.585.585s-.262.585-.585.585Z" style="fill: #020202;"/>
            <path d="M394.889,818.424h-41.005c-.323,0-.585-.262-.585-.585s.262-.585.585-.585h41.005c.323,0,.585.262.585.585s-.262.585-.585.585Z" style="fill: #020202;"/>
            <path d="M411.683,808.197h-38.565c-.323,0-.585-.262-.585-.585s.262-.585.585-.585h38.565c.323,0,.585.262.585.585s-.262.585-.585.585Z" style="fill: #020202;"/>
            <path d="M436.446,841.948c0,3.369,1.364,6.415,3.571,8.622,2.203,2.207,5.254,3.571,8.618,3.571h30.36v-24.388h-30.36c-6.734,0-12.189,5.46-12.189,12.194Z" style="fill: #ff4702;"/>
          </g>
        </g>
        <g>
          <path d="M422.025,403.699c-.97.053-1.879-.178-2.724-.694-.848-.515-1.508-1.349-1.98-2.499l-17.547-45.227c-.185-.552-.284-.982-.302-1.287-.104-.966.157-1.786.785-2.461.627-.674,1.426-1.039,2.396-1.092.867-.048,1.62.166,2.26.643.64.476,1.086,1.117,1.335,1.921l15.194,41.52,10.597-42.795c.207-.882.665-1.611,1.376-2.187.708-.576,1.524-.89,2.442-.941.918-.05,1.76.171,2.531.666.767.494,1.304,1.168,1.608,2.021l15.262,41.364,10.513-42.945c.21-.829.607-1.517,1.19-2.06.584-.544,1.284-.839,2.1-.884,1.02-.056,1.879.217,2.578.816.698.601,1.023,1.39.975,2.363.017.306-.035.745-.157,1.313l-12.443,46.889c-.344,1.196-.908,2.097-1.691,2.702-.787.607-1.664.938-2.632.991-1.021.056-1.969-.225-2.847-.84-.88-.616-1.498-1.4-1.858-2.353l-14.48-38.337-10.155,39.702c-.253.986-.782,1.835-1.586,2.544-.804.708-1.717,1.093-2.737,1.149Z" style="fill: #fff;"/>
          <path d="M497.327,399.909c-3.928.217-7.418-.444-10.471-1.99-3.053-1.544-5.466-3.79-7.241-6.737-1.774-2.945-2.774-6.432-2.997-10.462-.223-4.028.384-7.606,1.823-10.731,1.438-3.122,3.589-5.621,6.453-7.494,2.862-1.871,6.257-2.919,10.186-3.136,3.927-.218,7.404.448,10.433,1.993,3.027,1.547,5.44,3.793,7.241,6.736,1.8,2.945,2.812,6.433,3.035,10.461.223,4.03-.397,7.607-1.861,10.731-1.464,3.126-3.615,5.624-6.453,7.495-2.838,1.872-6.221,2.915-10.148,3.133ZM496.975,393.56c1.938-.107,3.851-.675,5.738-1.7,1.887-1.025,3.425-2.606,4.611-4.745,1.185-2.137,1.685-4.89,1.499-8.256-.186-3.366-.986-6.032-2.4-8.001-1.413-1.967-3.114-3.345-5.102-4.131-1.988-.784-3.951-1.124-5.888-1.016-1.939.108-3.865.663-5.779,1.662-1.914,1.002-3.453,2.559-4.614,4.669-1.163,2.111-1.649,4.849-1.463,8.215.187,3.366.973,6.048,2.364,8.042,1.388,1.996,3.091,3.398,5.105,4.207,2.015.81,3.99,1.162,5.93,1.054Z" style="fill: #fff;"/>
          <path d="M530.05,397.713c-.97.053-1.805-.234-2.504-.859-.7-.626-1.077-1.424-1.13-2.393l-1.819-32.822c-.053-.968.233-1.816.857-2.541.624-.726,1.422-1.115,2.392-1.169.968-.054,1.816.244,2.544.895.726.65,1.117,1.461,1.17,2.429l.182,3.29c1.277-1.913,2.867-3.663,4.775-5.253,1.907-1.589,4.186-2.458,6.839-2.605l.383-.021c.969-.053,1.79.235,2.466.861.673.629,1.037,1.428,1.091,2.396.053.97-.235,1.778-.863,2.427-.63.649-1.454,1.002-2.474,1.058l-.382.021c-2.5.139-4.736.89-6.706,2.252-1.971,1.364-3.565,3.075-4.781,5.137l1.289,23.259c.053.97-.245,1.805-.896,2.506-.653.7-1.463,1.079-2.432,1.133Z" style="fill: #fff;"/>
          <path d="M559.352,396.09c-.969.053-1.805-.234-2.503-.859-.7-.626-1.077-1.424-1.13-2.393l-2.751-49.653c-.054-.969.232-1.816.857-2.541.623-.725,1.422-1.115,2.391-1.168.968-.053,1.816.245,2.544.895.726.65,1.117,1.46,1.171,2.429l1.733,31.292,17.275-17.841c.292-.272.624-.521.995-.745.372-.225.787-.351,1.246-.376,1.326-.074,2.239.248,2.739.961.5.715.771,1.454.814,2.219.017.306-.039.681-.168,1.122-.13.443-.459.96-.989,1.551l-10.47,10.48,14.866,17.595c.546.635.839,1.31.879,2.022.056,1.021-.23,1.855-.859,2.505-.63.649-1.454,1.002-2.473,1.058-1.072.06-2.043-.373-2.912-1.297l-14.151-17.174-6.321,6.412.547,9.87c.053.97-.246,1.805-.897,2.506-.653.7-1.463,1.079-2.432,1.133Z" style="fill: #fff;"/>
          <path d="M308.718,502.067c-.97.053-1.805-.234-2.503-.859-.7-.626-1.077-1.424-1.13-2.394l-2.615-47.205c-.054-.968.231-1.816.857-2.541.623-.726,1.422-1.115,2.391-1.168.968-.054,1.816.245,2.544.895.726.651,1.117,1.461,1.171,2.429l2.615,47.205c.053.97-.246,1.805-.897,2.506-.653.7-1.463,1.079-2.431,1.133Z" style="fill: #fff;"/>
          <path d="M328.378,500.977c-.97.053-1.804-.234-2.503-.86-.7-.625-1.077-1.423-1.13-2.393l-1.819-32.822c-.056-1.02.229-1.879.855-2.58.626-.699,1.423-1.076,2.393-1.13.968-.054,1.817.232,2.542.857.726.626,1.116,1.447,1.172,2.467l.174,3.137c1.533-1.876,3.37-3.602,5.508-5.179,2.137-1.577,4.915-2.46,8.333-2.649,2.907-.161,5.418.38,7.533,1.617,2.114,1.239,3.77,2.964,4.967,5.174,1.197,2.211,1.871,4.692,2.025,7.447l1.203,21.727c.053.97-.245,1.805-.897,2.505-.652.7-1.463,1.079-2.432,1.133-.969.053-1.804-.233-2.503-.859-.7-.626-1.077-1.424-1.13-2.393l-1.162-20.963c-.161-2.907-.938-5.154-2.33-6.739-1.392-1.586-3.593-2.295-6.602-2.128-2.755.152-5.112,1.024-7.069,2.617-1.958,1.593-3.648,3.4-5.071,5.423l1.271,22.952c.053.97-.245,1.805-.897,2.505-.652.701-1.463,1.079-2.431,1.133Z" style="fill: #fff;"/>
          <path d="M396.239,497.217c-.97.053-1.805-.233-2.503-.859-.7-.626-1.077-1.424-1.13-2.393l-2.595-46.823c-.053-.968.232-1.816.858-2.541.623-.725,1.422-1.115,2.391-1.168l17.443-.966c3.875-.215,7.154.102,9.837.951,2.681.849,4.846,2.06,6.494,3.631,1.647,1.573,2.871,3.332,3.669,5.284.799,1.951,1.255,3.948,1.367,5.987.114,2.041-.12,4.074-.697,6.101-.579,2.028-1.6,3.914-3.063,5.657-1.464,1.744-3.482,3.185-6.054,4.326-2.572,1.14-5.796,1.817-9.671,2.032l-13.924.771.907,16.373c.053.97-.246,1.805-.897,2.506-.653.7-1.463,1.079-2.432,1.133ZM398.296,470.627l13.235-.733c3.825-.212,6.729-.896,8.711-2.056,1.982-1.158,3.312-2.563,3.987-4.211.676-1.649.97-3.289.879-4.922-.093-1.683-.567-3.294-1.419-4.833-.852-1.539-2.329-2.775-4.426-3.707-2.098-.932-5.06-1.293-8.885-1.082l-13.235.733,1.153,20.81Z" style="fill: #fff;"/>
          <path d="M445.661,494.479c-.97.054-1.804-.233-2.503-.859-.699-.625-1.077-1.423-1.13-2.393l-1.819-32.822c-.053-.968.233-1.816.857-2.542.624-.726,1.421-1.114,2.391-1.168.968-.053,1.817.245,2.544.896.728.651,1.117,1.461,1.171,2.429l.182,3.29c1.277-1.912,2.867-3.663,4.775-5.253,1.907-1.589,4.187-2.458,6.84-2.605l.382-.021c.97-.054,1.791.234,2.466.861.673.628,1.037,1.427,1.092,2.395.053.97-.235,1.778-.863,2.426-.63.65-1.454,1.002-2.474,1.059l-.382.021c-2.5.138-4.736.889-6.706,2.252-1.971,1.363-3.564,3.074-4.781,5.137l1.289,23.258c.053.97-.245,1.805-.897,2.505-.652.7-1.464,1.079-2.432,1.132Z" style="fill: #fff;"/>
          <path d="M487.609,492.538c-3.928.218-7.418-.444-10.47-1.989-3.054-1.545-5.468-3.79-7.241-6.737-1.775-2.945-2.774-6.432-2.998-10.462-.223-4.028.385-7.606,1.823-10.731,1.438-3.121,3.589-5.621,6.453-7.493,2.863-1.872,6.258-2.918,10.186-3.136,3.926-.217,7.404.447,10.431,1.993,3.028,1.547,5.442,3.793,7.242,6.735,1.8,2.945,2.812,6.432,3.035,10.461.223,4.03-.398,7.608-1.861,10.732-1.465,3.126-3.616,5.624-6.454,7.495-2.839,1.871-6.221,2.915-10.148,3.132ZM487.257,486.189c1.938-.108,3.85-.675,5.737-1.7,1.889-1.024,3.425-2.606,4.611-4.745,1.186-2.137,1.685-4.89,1.499-8.256-.187-3.366-.986-6.033-2.4-8.001-1.414-1.967-3.114-3.344-5.103-4.131-1.987-.784-3.95-1.123-5.887-1.016-1.939.108-3.865.663-5.779,1.663-1.914,1.002-3.453,2.559-4.614,4.669-1.162,2.11-1.649,4.849-1.463,8.215.186,3.367.973,6.047,2.364,8.042,1.388,1.995,3.092,3.397,5.105,4.206,2.015.81,3.99,1.161,5.93,1.053Z" style="fill: #fff;"/>
          <path d="M536.093,507.503c-3.112.172-6.195-.067-9.249-.716-3.055-.649-5.503-1.434-7.343-2.355-.373-.236-.71-.55-1.011-.942-.304-.393-.475-.946-.515-1.66-.042-.764.211-1.495.762-2.19.547-.697,1.256-1.068,2.124-1.116.255-.014.499-.002.732.037.231.037.452.101.662.193,1.678.725,3.577,1.31,5.7,1.756,2.122.445,4.484.596,7.086.452,7.803-.432,11.476-4.806,11.014-13.12l-.283-5.125c-1.489,1.771-3.274,3.263-5.354,4.479-2.082,1.216-4.551,1.902-7.407,2.06-2.142.119-4.319-.17-6.532-.866-2.213-.696-4.271-1.81-6.171-3.342-1.902-1.532-3.483-3.516-4.742-5.954-1.262-2.436-1.985-5.339-2.172-8.705-.186-3.366.213-6.33,1.197-8.891.982-2.56,2.334-4.708,4.056-6.441,1.719-1.733,3.64-3.067,5.764-4.003,2.121-.935,4.255-1.463,6.397-1.582,2.856-.158,5.385.252,7.589,1.23,2.202.978,4.141,2.265,5.816,3.859l-.106-1.912c-.053-.968.231-1.816.857-2.541.623-.726,1.422-1.115,2.391-1.168.968-.054,1.816.244,2.544.895.726.651,1.117,1.461,1.171,2.429l1.895,34.199c.356,6.427-.926,11.459-3.845,15.101-2.92,3.64-7.261,5.621-13.024,5.941ZM534.112,482.825c2.652-.147,4.864-.857,6.635-2.133,1.772-1.275,3.331-2.666,4.681-4.173l-.873-15.76c-1.512-1.399-3.215-2.624-5.116-3.669-1.899-1.046-4.175-1.496-6.827-1.349-2.398.133-4.564.74-6.499,1.818-1.936,1.08-3.421,2.659-4.457,4.736-1.036,2.079-1.47,4.648-1.3,7.708.17,3.06.884,5.567,2.144,7.517,1.258,1.952,2.909,3.357,4.952,4.214,2.044.86,4.262,1.223,6.66,1.089Z" style="fill: #fff;"/>
          <path d="M568.606,487.667c-.97.053-1.804-.233-2.503-.859-.699-.626-1.077-1.424-1.13-2.393l-1.819-32.822c-.053-.968.233-1.816.857-2.541.624-.726,1.422-1.115,2.391-1.168.968-.053,1.817.244,2.544.895.727.651,1.118,1.461,1.171,2.429l.182,3.29c1.276-1.912,2.867-3.663,4.775-5.253,1.907-1.588,4.186-2.457,6.84-2.605l.382-.021c.969-.053,1.79.234,2.465.861.674.629,1.038,1.428,1.092,2.396.053.97-.235,1.777-.863,2.426-.63.649-1.454,1.002-2.474,1.058l-.383.021c-2.5.139-4.735.889-6.705,2.252-1.971,1.363-3.564,3.075-4.781,5.137l1.289,23.258c.053.97-.245,1.805-.897,2.505-.652.701-1.464,1.079-2.432,1.133Z" style="fill: #fff;"/>
          <path d="M610.783,485.714c-6.224.345-11.18-1.158-14.87-4.509-3.69-3.351-5.714-8.24-6.07-14.667-.192-3.468.264-6.779,1.369-9.937,1.103-3.156,2.953-5.778,5.55-7.867,2.595-2.087,6.01-3.249,10.244-3.483,3.926-.217,7.291.505,10.096,2.165,2.803,1.662,4.986,3.906,6.55,6.736,1.564,2.83,2.441,5.955,2.63,9.371.053.97-.22,1.804-.821,2.501-.602.699-1.437,1.077-2.508,1.136l-25.936,1.438c.598,3.394,2.05,6.064,4.358,8.008,2.307,1.944,5.528,2.802,9.658,2.573,2.296-.127,4.222-.45,5.779-.972,1.556-.521,3.029-1.177,4.419-1.972.396-.226.85-.354,1.361-.382.815-.046,1.545.195,2.188.723.644.528.99,1.225,1.038,2.092.034.612-.128,1.171-.483,1.677-.356.507-.806.927-1.35,1.264-1.63,1.063-3.409,1.967-5.336,2.713-1.928.746-4.551,1.211-7.865,1.395ZM596.704,462.935l22.57-1.251c-.3-2.643-1.095-4.749-2.383-6.314-1.29-1.565-2.797-2.685-4.522-3.356-1.726-.672-3.405-.963-5.036-.873-1.633.091-3.269.565-4.91,1.424-1.641.858-3.003,2.136-4.085,3.833-1.083,1.697-1.627,3.876-1.633,6.537Z" style="fill: #fff;"/>
          <path d="M649.265,483.582c-2.805.156-5.36-.01-7.664-.496s-4.454-1.211-6.451-2.175c-.903-.564-1.381-1.382-1.441-2.454-.042-.764.198-1.48.724-2.149.526-.668,1.223-1.027,2.09-1.075.459-.025.923.052,1.394.229,1.41.537,2.957.988,4.641,1.355,1.682.367,3.646.489,5.891.364,2.957-.164,5.087-.755,6.386-1.774,1.298-1.018,1.901-2.393,1.805-4.128-.063-1.122-.659-1.959-1.789-2.511-1.131-.55-2.588-.994-4.371-1.33-1.785-.336-3.659-.693-5.624-1.07-1.965-.377-3.851-.938-5.657-1.682-1.806-.744-3.297-1.813-4.474-3.205-1.178-1.393-1.829-3.237-1.957-5.532-.192-3.468.898-6.42,3.27-8.853,2.371-2.434,6.032-3.788,10.979-4.062,2.091-.116,4.077-.046,5.958.207,1.881.254,3.628.617,5.241,1.091.724.165,1.295.53,1.711,1.095.414.565.636,1.128.668,1.689.045.816-.209,1.546-.761,2.191-.553.646-1.263.992-2.13,1.039-.204.011-.383.009-.537-.009-.155-.017-.31-.046-.466-.088-1.247-.34-2.604-.597-4.072-.772-1.468-.175-3.044-.216-4.727-.122-2.806.155-4.945.786-6.419,1.89-1.473,1.106-2.168,2.422-2.083,3.952.074,1.327.678,2.316,1.815,2.97,1.136.654,2.596,1.149,4.38,1.484,1.784.336,3.67.679,5.659,1.029,1.989.351,3.887.898,5.693,1.641,1.806.744,3.298,1.826,4.477,3.244,1.178,1.419,1.836,3.378,1.975,5.876.172,3.112-.916,5.846-3.267,8.201-2.352,2.357-5.974,3.669-10.871,3.941Z" style="fill: #fff;"/>
          <path d="M685.988,481.547c-2.805.155-5.36-.009-7.663-.496-2.304-.486-4.454-1.211-6.452-2.175-.902-.563-1.381-1.381-1.441-2.453-.042-.765.198-1.48.724-2.15.526-.668,1.223-1.028,2.09-1.075.459-.025.923.051,1.394.229,1.41.537,2.957.988,4.641,1.355,1.682.367,3.646.489,5.891.364,2.958-.164,5.087-.755,6.386-1.774,1.299-1.018,1.901-2.394,1.805-4.129-.063-1.122-.659-1.959-1.788-2.51-1.132-.55-2.588-.994-4.371-1.331-1.784-.336-3.659-.692-5.624-1.069-1.965-.377-3.851-.938-5.657-1.682-1.806-.744-3.297-1.813-4.474-3.206-1.178-1.393-1.829-3.236-1.957-5.531-.192-3.468.898-6.42,3.27-8.854,2.371-2.433,6.032-3.788,10.979-4.062,2.091-.116,4.077-.045,5.958.207,1.881.255,3.628.618,5.241,1.091.725.165,1.296.53,1.711,1.095.414.565.637,1.129.668,1.69.045.816-.21,1.546-.762,2.191-.553.645-1.263.991-2.13,1.039-.204.012-.382.009-.537-.009-.155-.017-.31-.046-.466-.089-1.247-.34-2.604-.596-4.072-.772-1.468-.174-3.044-.215-4.727-.122-2.806.155-4.945.787-6.419,1.891-1.473,1.105-2.168,2.422-2.083,3.952.074,1.327.678,2.316,1.816,2.969,1.135.655,2.596,1.149,4.379,1.485,1.784.336,3.67.679,5.659,1.029,1.989.35,3.887.898,5.694,1.641,1.806.744,3.298,1.826,4.477,3.244,1.178,1.419,1.837,3.378,1.976,5.876.172,3.112-.917,5.846-3.268,8.201-2.352,2.357-5.974,3.669-10.871,3.94Z" style="fill: #fff;"/>
        </g>
      </g>
    </g>
  </g>
</svg>